<svg xmlns="http://www.w3.org/2000/svg" width="16" height="16" viewBox="0 0 16 16" fill="none"><g clip-path="url(#clip0_9549_10187)"><path d="M15.0588 2.01186H0.941176C0.917986 2.01186 0.877172 2.00232 0.83358 1.95379C0.78761 1.90263 0.75 1.81757 0.75 1.71425C0.75 1.61092 0.78761 1.52586 0.83358 1.4747C0.877172 1.42617 0.917986 1.41663 0.941176 1.41663H15.0588C15.082 1.41663 15.1228 1.42617 15.1664 1.4747C15.2124 1.52586 15.25 1.61091 15.25 1.71425C15.25 1.81758 15.2124 1.90263 15.1664 1.95379C15.1228 2.00232 15.082 2.01186 15.0588 2.01186ZM15.0588 8.29758H0.941176C0.917987 8.29758 0.877172 8.28803 0.83358 8.23951C0.78761 8.18834 0.75 8.10329 0.75 7.99996C0.75 7.89663 0.78761 7.81158 0.83358 7.76041L0.275664 7.25918L0.83358 7.76041C0.877172 7.71189 0.917986 7.70234 0.941176 7.70234H15.0588C15.082 7.70234 15.1228 7.71189 15.1664 7.76041L15.7243 7.25918L15.1664 7.76041C15.2124 7.81158 15.25 7.89663 15.25 7.99996C15.25 8.10329 15.2124 8.18834 15.1664 8.23951C15.1228 8.28803 15.082 8.29758 15.0588 8.29758ZM15.0588 14.5833H0.941176C0.917985 14.5833 0.877171 14.5737 0.83358 14.5252C0.78761 14.4741 0.75 14.389 0.75 14.2857C0.75 14.1823 0.78761 14.0973 0.83358 14.0461C0.877171 13.9976 0.917985 13.9881 0.941176 13.9881H15.0588C15.082 13.9881 15.1228 13.9976 15.1664 14.0461C15.2124 14.0973 15.25 14.1823 15.25 14.2857C15.25 14.389 15.2124 14.4741 15.1664 14.5252C15.1228 14.5737 15.082 14.5833 15.0588 14.5833Z" fill="#111928" stroke="#111928" stroke-width="1.5"></path></g><defs><clipPath id="clip0_9549_10187"><rect width="16" height="16" fill="#111928"></rect></clipPath></defs></svg>