<?xml version="1.0"?><svg contentScriptType="text/ecmascript" contentStyleType="text/css" enable-background="new 0 0 2048 2048" height="2048px" id="Layer_1" preserveAspectRatio="xMidYMid meet" version="1.1" viewBox="-2.3330001831054688 0 772.666015625 2048" width="772.666015625px" xml:space="preserve" xmlns="http://www.w3.org/2000/svg" xmlns:xlink="http://www.w3.org/1999/xlink" zoomAndPan="magnify"><path d="M765,621c-6,12.667-15.667,19-29,19H512v1248c0,9.333-3,17-9,23s-13.667,9-23,9H288c-9.333,0-17-3-23-9s-9-13.667-9-23V640  H32c-14,0-23.667-6.333-29-19s-3.667-24.333,5-35l350-384c6.667-6.667,14.333-10,23-10c9.333,0,17.333,3.333,24,10l355,384  C768.667,596.667,770.333,608.333,765,621z"/></svg>