<svg width="28" height="28" viewBox="0 0 28 28" fill="none" xmlns="http://www.w3.org/2000/svg">
<path d="M13.7812 26.9062C13.7386 26.9062 13.6953 26.9032 13.6518 26.8968C13.3168 26.8465 13.0403 26.6072 12.943 26.2824L7.693 8.78237C7.60069 8.47437 7.68491 8.14013 7.91263 7.91241C8.14078 7.68469 8.477 7.60003 8.78259 7.69278L26.2826 12.9428C26.6072 13.0401 26.8465 13.3166 26.8971 13.6515C26.9472 13.9869 26.7988 14.3211 26.5169 14.509L22.1552 17.4169L26.6503 21.9124C26.9922 22.2543 26.9922 22.808 26.6503 23.1497L23.1503 26.6497C22.8084 26.9916 22.2548 26.9916 21.9131 26.6497L17.4175 22.1546L14.5097 26.5162C14.3456 26.7623 14.0709 26.9062 13.7812 26.9062ZM17.2812 19.9062C17.5125 19.9062 17.7349 19.9977 17.8999 20.1626L22.5312 24.794L24.7938 22.5312L20.1626 17.8999C19.9771 17.7144 19.8848 17.456 19.9106 17.1948C19.9362 16.9343 20.0777 16.6983 20.2961 16.553L23.9986 14.0849L9.83675 9.83631L14.0853 23.9982L16.5535 20.2956C16.6987 20.0773 16.9345 19.9358 17.1953 19.9102C17.2239 19.9076 17.2526 19.9062 17.2812 19.9062ZM5.64987 5.64987C5.99178 5.30797 5.99178 4.75431 5.64987 4.41263L3.89987 2.66263C3.55797 2.32072 3.00431 2.32072 2.66263 2.66263C2.32094 3.00453 2.32072 3.55819 2.66263 3.89987L4.41263 5.64987C4.58347 5.82072 4.80725 5.90625 5.03125 5.90625C5.25525 5.90625 5.47903 5.82072 5.64987 5.64987ZM5.03125 8.53125C5.03125 8.04803 4.63947 7.65625 4.15625 7.65625H1.53125C1.04803 7.65625 0.65625 8.04803 0.65625 8.53125C0.65625 9.01447 1.04803 9.40625 1.53125 9.40625H4.15625C4.63947 9.40625 5.03125 9.01447 5.03125 8.53125ZM3.89987 14.3999L5.64987 12.6499C5.99178 12.308 5.99178 11.7543 5.64987 11.4126C5.30797 11.0709 4.75431 11.0707 4.41263 11.4126L2.66263 13.1626C2.32072 13.5045 2.32072 14.0582 2.66263 14.3999C2.83347 14.5707 3.05725 14.6562 3.28125 14.6562C3.50525 14.6562 3.72903 14.5707 3.89987 14.3999ZM12.6499 5.64987L14.3999 3.89987C14.7418 3.55797 14.7418 3.00431 14.3999 2.66263C14.058 2.32094 13.5043 2.32072 13.1626 2.66263L11.4126 4.41263C11.0707 4.75453 11.0707 5.30819 11.4126 5.64987C11.5835 5.82072 11.8073 5.90625 12.0312 5.90625C12.2552 5.90625 12.479 5.82072 12.6499 5.64987ZM9.40625 4.15625V1.53125C9.40625 1.04803 9.01447 0.65625 8.53125 0.65625C8.04803 0.65625 7.65625 1.04803 7.65625 1.53125V4.15625C7.65625 4.63947 8.04803 5.03125 8.53125 5.03125C9.01447 5.03125 9.40625 4.63947 9.40625 4.15625Z" fill="#1F2A37"/>
</svg>
