<svg width="49" height="49" viewBox="0 0 49 49" fill="none" xmlns="http://www.w3.org/2000/svg">
<path d="M0.666992 24.5C0.666992 11.2452 11.4122 0.5 24.667 0.5C37.9218 0.5 48.667 11.2452 48.667 24.5C48.667 37.7548 37.9218 48.5 24.667 48.5C11.4122 48.5 0.666992 37.7548 0.666992 24.5Z" fill="#EDEBFE"/>
<g clip-path="url(#clip0_6017_39575)">
<path d="M24.667 25.5968L35.797 16.0664C35.3696 15.7033 34.8278 15.5027 34.267 15.5H15.067C14.5062 15.5027 13.9644 15.7033 13.537 16.0664L24.667 25.5968Z" fill="#6C2BD9"/>
<path d="M26.167 27.4724C25.7303 27.8065 25.1964 27.9889 24.6466 27.992C24.1342 27.993 23.6354 27.8271 23.2258 27.5192L12.667 18.4808V31.1C12.667 31.7365 12.9198 32.347 13.3699 32.7971C13.82 33.2471 14.4305 33.5 15.067 33.5H34.267C34.9035 33.5 35.514 33.2471 35.964 32.7971C36.4141 32.347 36.667 31.7365 36.667 31.1V18.4808L26.167 27.4724Z" fill="#6C2BD9"/>
</g>
<defs>
<clipPath id="clip0_6017_39575">
<rect width="24" height="24" fill="white" transform="translate(12.667 12.5)"/>
</clipPath>
</defs>
</svg>
