<svg width="48" height="49" viewBox="0 0 48 49" fill="none" xmlns="http://www.w3.org/2000/svg">
<path d="M0 24.5C0 11.2452 10.7452 0.5 24 0.5C37.2548 0.5 48 11.2452 48 24.5C48 37.7548 37.2548 48.5 24 48.5C10.7452 48.5 0 37.7548 0 24.5Z" fill="#E2F2FF"/>
<g clip-path="url(#clip0_6017_39581)">
<path d="M23.4625 28.204C24.0204 28.7601 24.776 29.0723 25.5637 29.0723C26.3514 29.0723 27.107 28.7601 27.6648 28.204L28.7154 27.1536C29.2733 26.5976 30.0289 26.2853 30.8166 26.2853C31.6043 26.2853 32.3599 26.5976 32.9177 27.1536L35.0189 29.2544C35.3261 29.5116 35.5731 29.833 35.7426 30.196C35.9122 30.559 36 30.9547 36 31.3553C36 31.7559 35.9122 32.1516 35.7426 32.5146C35.5731 32.8775 35.3261 33.1989 35.0189 33.4561C29.5169 38.9588 23.1834 36.3448 17.6648 30.8271C12.1462 25.3094 9.54531 18.9828 15.0489 13.4801C15.3062 13.1732 15.6277 12.9264 15.9907 12.7571C16.3537 12.5878 16.7494 12.5 17.15 12.5C17.5506 12.5 17.9463 12.5878 18.3093 12.7571C18.6723 12.9264 18.9938 13.1732 19.2512 13.4801L21.3523 15.581C21.9088 16.1385 22.2214 16.8941 22.2214 17.6818C22.2214 18.4695 21.9088 19.2251 21.3523 19.7826L20.3018 20.8331C19.7453 21.3906 19.4327 22.1462 19.4327 22.9339C19.4327 23.7216 19.7453 24.4772 20.3018 25.0347L23.4625 28.204Z" fill="#0073E6"/>
</g>
<defs>
<clipPath id="clip0_6017_39581">
<rect width="24" height="24" fill="white" transform="translate(12 12.5)"/>
</clipPath>
</defs>
</svg>
