<svg width="49" height="48" viewBox="0 0 49 48" fill="none" xmlns="http://www.w3.org/2000/svg">
<path d="M0.333984 24C0.333984 10.7452 11.0792 0 24.334 0C37.5888 0 48.334 10.7452 48.334 24C48.334 37.2548 37.5888 48 24.334 48C11.0792 48 0.333984 37.2548 0.333984 24Z" fill="#DFF2EE"/>
<g clip-path="url(#clip0_6017_39587)">
<path d="M21.7228 19.1244C22.0408 19.1244 22.3576 18.9996 22.594 18.75C23.4832 17.814 25.0696 17.778 25.996 18.672C26.4736 19.1316 27.2332 19.1184 27.6928 18.6408C28.1536 18.1644 28.1392 17.4036 27.6628 16.944C26.7628 16.0764 25.5808 15.6 24.334 15.6C23.0236 15.6 21.7552 16.146 20.8528 17.0988C20.3968 17.5788 20.4172 18.3396 20.8972 18.7956C21.1288 19.0152 21.4264 19.1244 21.7228 19.1244Z" fill="#00765D"/>
<path d="M32.734 20.4C32.734 15.768 28.9648 12 24.334 12C19.7032 12 15.934 15.768 15.934 20.4C13.9492 20.4 12.334 22.0152 12.334 24V26.4C12.334 28.3848 13.9492 30 15.934 30H17.134C17.7976 30 18.334 29.4624 18.334 28.8V20.4C18.334 17.0916 21.0256 14.4 24.334 14.4C27.6424 14.4 30.334 17.0916 30.334 20.4V28.8996C30.334 30.8304 28.7632 32.4 26.8336 32.4H26.734C26.734 31.0764 25.6576 30 24.334 30H23.134C21.8104 30 20.734 31.0764 20.734 32.4V33.6C20.734 34.9236 21.8104 36 23.134 36H24.334C25.2184 36 25.984 35.514 26.4004 34.8H26.8336C29.71 34.8 32.1052 32.7276 32.6224 30H32.734C34.7188 30 36.334 28.3848 36.334 26.4V24C36.334 22.0152 34.7188 20.4 32.734 20.4Z" fill="#00765D"/>
</g>
<defs>
<clipPath id="clip0_6017_39587">
<rect width="24" height="24" fill="white" transform="translate(12.334 12)"/>
</clipPath>
</defs>
</svg>
