<svg width="40" height="40" viewBox="0 0 40 40" fill="none" xmlns="http://www.w3.org/2000/svg">
<path d="M0 20C0 8.95431 8.95431 0 20 0C31.0457 0 40 8.95431 40 20C40 31.0457 31.0457 40 20 40C8.95431 40 0 31.0457 0 20Z" fill="#494949"/>
<path fill-rule="evenodd" clip-rule="evenodd" d="M20.8433 13.1682H24V10H21.4107C20.2632 10.0014 19.1631 10.4627 18.3518 11.2827C17.5404 12.1028 17.0839 13.2146 17.0825 14.3743V16.3365H15V19.5047H17.0899V30H20.2247V19.5047H23.3814L24 16.3365H20.2247V13.7924C20.2271 13.6274 20.2931 13.4699 20.4086 13.3534C20.5241 13.2368 20.68 13.1704 20.8433 13.1682Z" fill="white"/>
</svg>
