<svg width="40" height="40" viewBox="0 0 40 40" fill="none" xmlns="http://www.w3.org/2000/svg">
<path d="M0 20C0 8.95431 8.95431 0 20 0C31.0457 0 40 8.95431 40 20C40 31.0457 31.0457 40 20 40C8.95431 40 0 31.0457 0 20Z" fill="#494949"/>
<path d="M20.0064 10.982C22.9472 10.982 23.2955 10.9949 24.452 11.0465C25.5269 11.0938 26.1073 11.2744 26.4942 11.4249C27.0059 11.6226 27.3756 11.8634 27.7583 12.246C28.1452 12.633 28.3817 12.9984 28.5794 13.5101C28.7299 13.897 28.9105 14.4817 28.9578 15.5523C29.0094 16.7131 29.0223 17.0614 29.0223 19.9979C29.0223 22.9386 29.0094 23.2869 28.9578 24.4434C28.9105 25.5183 28.7299 26.0987 28.5794 26.4856C28.3817 26.9973 28.1409 27.367 27.7583 27.7497C27.3713 28.1366 27.0059 28.3731 26.4942 28.5708C26.1073 28.7213 25.5226 28.9019 24.452 28.9492C23.2912 29.0008 22.9429 29.0137 20.0064 29.0137C17.0657 29.0137 16.7174 29.0008 15.5609 28.9492C14.486 28.9019 13.9056 28.7213 13.5187 28.5708C13.007 28.3731 12.6373 28.1323 12.2546 27.7497C11.8677 27.3627 11.6312 26.9973 11.4335 26.4856C11.283 26.0987 11.1024 25.514 11.0551 24.4434C11.0035 23.2826 10.9906 22.9343 10.9906 19.9979C10.9906 17.0571 11.0035 16.7088 11.0551 15.5523C11.1024 14.4774 11.283 13.897 11.4335 13.5101C11.6312 12.9984 11.872 12.6287 12.2546 12.246C12.6416 11.8591 13.007 11.6226 13.5187 11.4249C13.9056 11.2744 14.4903 11.0938 15.5609 11.0465C16.7174 10.9949 17.0657 10.982 20.0064 10.982ZM20.0064 9C17.0184 9 16.6443 9.0129 15.4706 9.06449C14.3012 9.11608 13.4972 9.30526 12.8007 9.57612C12.0741 9.85988 11.4593 10.2339 10.8487 10.8487C10.2339 11.4593 9.85988 12.0741 9.57612 12.7964C9.30526 13.4972 9.11608 14.2969 9.06449 15.4663C9.0129 16.6443 9 17.0184 9 20.0064C9 22.9945 9.0129 23.3686 9.06449 24.5423C9.11608 25.7117 9.30526 26.5157 9.57612 27.2122C9.85988 27.9388 10.2339 28.5536 10.8487 29.1642C11.4593 29.7747 12.0741 30.153 12.7964 30.4325C13.4972 30.7033 14.2969 30.8925 15.4663 30.9441C16.64 30.9957 17.0141 31.0086 20.0021 31.0086C22.9902 31.0086 23.3643 30.9957 24.538 30.9441C25.7074 30.8925 26.5114 30.7033 27.2079 30.4325C27.9302 30.153 28.545 29.7747 29.1556 29.1642C29.7661 28.5536 30.1444 27.9388 30.4239 27.2165C30.6947 26.5157 30.8839 25.716 30.9355 24.5466C30.9871 23.3729 31 22.9988 31 20.0107C31 17.0227 30.9871 16.6486 30.9355 15.4749C30.8839 14.3055 30.6947 13.5015 30.4239 12.805C30.153 12.0741 29.779 11.4593 29.1642 10.8487C28.5536 10.2382 27.9388 9.85988 27.2165 9.58042C26.5157 9.30956 25.716 9.12038 24.5466 9.06879C23.3686 9.0129 22.9945 9 20.0064 9Z" fill="white"/>
<path d="M20.0064 14.3527C16.8851 14.3527 14.3527 16.8851 14.3527 20.0064C14.3527 23.1278 16.8851 25.6602 20.0064 25.6602C23.1278 25.6602 25.6602 23.1278 25.6602 20.0064C25.6602 16.8851 23.1278 14.3527 20.0064 14.3527ZM20.0064 23.6738C17.9814 23.6738 16.3391 22.0315 16.3391 20.0064C16.3391 17.9814 17.9814 16.3391 20.0064 16.3391C22.0315 16.3391 23.6738 17.9814 23.6738 20.0064C23.6738 22.0315 22.0315 23.6738 20.0064 23.6738Z" fill="white"/>
<path d="M27.2036 14.1292C27.2036 14.8601 26.6103 15.4491 25.8837 15.4491C25.1528 15.4491 24.5638 14.8558 24.5638 14.1292C24.5638 13.3983 25.1571 12.8093 25.8837 12.8093C26.6103 12.8093 27.2036 13.4026 27.2036 14.1292Z" fill="white"/>
</svg>
