<svg width="28" height="28" viewBox="0 0 28 28" fill="none" xmlns="http://www.w3.org/2000/svg">
<path d="M21.631 10.3737C20.5423 8.97991 19.309 7.80538 18.0646 6.97725C17.6156 6.67849 17.171 6.42742 16.7318 6.22333C17.1771 5.82619 17.6117 5.32842 18.0341 4.7303C18.8861 3.52412 19.3829 2.32941 19.4037 2.2791C19.584 1.84209 19.3993 1.33984 18.9789 1.12366C18.5585 0.907484 18.0426 1.04945 17.792 1.45042C17.4112 2.05953 16.8814 2.21238 16.5039 2.23338C15.8507 2.26964 15.1871 1.94622 14.7293 1.36801C14.0411 0.498641 12.9526 0 11.743 0C10.5335 0 9.44497 0.498641 8.75672 1.3679C8.5523 1.62608 8.50347 1.97466 8.62914 2.27905C8.64986 2.3293 9.14675 3.52401 9.99868 4.73025C10.4209 5.32798 10.8552 5.82553 11.3002 6.22262C10.8574 6.42813 10.4092 6.68117 9.95657 6.98272C8.70849 7.81408 7.47168 8.99319 6.37968 10.3926C4.07372 13.3477 2.69702 16.8721 2.69702 19.8202C2.69702 22.2455 3.56037 24.1888 5.26334 25.596C7.19485 27.1912 10.1397 28 14.0163 28C17.8789 28 20.8149 27.1846 22.7426 25.5765C24.4416 24.1591 25.3031 22.2038 25.3031 19.765C25.303 16.8283 23.9303 13.3175 21.631 10.3737ZM10.5705 2.14736C10.8942 1.93692 11.3051 1.81869 11.743 1.81869C12.3839 1.81869 12.9673 2.07222 13.3034 2.49681C14.0534 3.44422 15.1429 4.01007 16.2696 4.05218C15.6185 4.88097 14.8262 5.5697 14.0163 5.5697C12.5857 5.5697 11.2093 3.41945 10.5705 2.14736ZM21.5776 24.18C19.9855 25.5079 17.4416 26.1813 14.0162 26.1813C10.5736 26.1813 8.01839 25.5126 6.42157 24.1939C5.15686 23.1487 4.5156 21.6772 4.5156 19.8201C4.5156 17.2638 5.74842 14.1577 7.81342 11.5113C9.79775 8.9682 12.1746 7.38834 14.0162 7.38834C15.8514 7.38834 18.2201 8.96126 20.1978 11.4933C22.2557 14.128 23.4844 17.2203 23.4844 19.765C23.4844 21.639 22.8428 23.1244 21.5776 24.18Z" fill="#1F2A37"/>
<path d="M14.4525 16.5492C13.4985 16.045 12.512 15.5235 12.512 14.9283C12.512 14.0926 13.1918 13.4127 14.0275 13.4127C14.8632 13.4127 15.5431 14.0926 15.5431 14.9283C15.5431 15.4305 15.9502 15.8376 16.4524 15.8376C16.9546 15.8376 17.3618 15.4305 17.3618 14.9283C17.3618 13.405 16.3346 12.118 14.9369 11.7211V11.2909C14.9369 10.7887 14.5297 10.3816 14.0275 10.3816C13.5253 10.3816 13.1182 10.7887 13.1182 11.2909V11.7211C11.7204 12.118 10.6933 13.405 10.6933 14.9283C10.6933 16.6193 12.3064 17.472 13.6025 18.1571C14.5566 18.6614 15.5431 19.1828 15.5431 19.7781C15.5431 20.6137 14.8632 21.2936 14.0275 21.2936C13.1918 21.2936 12.512 20.6137 12.512 19.7781C12.512 19.2759 12.1048 18.8687 11.6026 18.8687C11.1004 18.8687 10.6933 19.2759 10.6933 19.7781C10.6933 21.3013 11.7204 22.5883 13.1182 22.9852V23.4154C13.1182 23.9176 13.5253 24.3247 14.0275 24.3247C14.5297 24.3247 14.9369 23.9176 14.9369 23.4154V22.9852C16.3346 22.5883 17.3618 21.3013 17.3618 19.7781C17.3618 18.0871 15.7486 17.2344 14.4525 16.5492Z" fill="#1F2A37"/>
</svg>
