<svg width="48" height="48" viewBox="0 0 48 48" fill="none" xmlns="http://www.w3.org/2000/svg">
<rect x="-3.05176e-05" width="48" height="48" rx="24" fill="#EBE7F8"/>
<g clip-path="url(#clip0_19925_99511)">
<path d="M32.1128 32.889C31.8608 32.8294 31.6085 32.9859 31.5493 33.238L31.0353 35.4239C30.976 35.6759 31.1323 35.9283 31.3843 35.9875C31.4203 35.996 31.4564 36 31.492 36C31.7046 36 31.8971 35.8545 31.9479 35.6385L32.4619 33.4526C32.5211 33.2006 32.3648 32.9482 32.1128 32.889Z" fill="#1F2A37"/>
<path d="M30.209 16.6529C30.209 15.4455 30.5491 14.2674 31.1927 13.2457L31.5247 12.7187C31.6627 12.4996 31.597 12.2102 31.378 12.0722C31.1589 11.9342 30.8695 11.9999 30.7315 12.219L30.3995 12.746C29.6615 13.9175 29.2715 15.2685 29.2715 16.6529C29.2715 18.1314 29.6616 19.5714 30.4027 20.8433H17.5973C18.3384 19.5714 18.7284 18.1313 18.7284 16.6529C18.7284 15.2685 18.3384 13.9175 17.6004 12.746L17.2684 12.219C17.1304 11.9999 16.841 11.9342 16.6219 12.0722C16.4029 12.2102 16.3372 12.4996 16.4752 12.7187L16.8072 13.2457C17.4508 14.2674 17.7909 15.4455 17.7909 16.6529C17.7909 18.0872 17.3775 19.4809 16.5953 20.6832C15.2411 22.7648 14.5253 25.1778 14.5253 27.6612C14.5253 28.646 14.6396 29.6314 14.865 30.5901L16.052 35.6384C16.1028 35.8543 16.2953 35.9999 16.5079 35.9999C16.5435 35.9999 16.5796 35.9959 16.6157 35.9874C16.8677 35.9281 17.0239 35.6758 16.9646 35.4238L15.7776 30.3756C15.5688 29.4871 15.4628 28.5738 15.4628 27.6612C15.4628 26.9931 15.5191 26.3305 15.6292 25.6793L22.494 29.9782V35.5312C22.494 35.79 22.7039 35.9999 22.9628 35.9999C23.2216 35.9999 23.4315 35.79 23.4315 35.5312V30.1874H24.5684V35.5312C24.5684 35.79 24.7783 35.9999 25.0372 35.9999C25.296 35.9999 25.5059 35.79 25.5059 35.5312V29.9782L32.3707 25.6793C32.4808 26.3305 32.5371 26.9931 32.5371 27.6612C32.5371 28.1622 32.5048 28.6681 32.4414 29.1649C32.4085 29.4217 32.5901 29.6564 32.8468 29.6893C32.867 29.6919 32.8871 29.6931 32.9069 29.6931C33.1393 29.6931 33.341 29.5204 33.3712 29.2838C33.4398 28.7477 33.4745 28.2019 33.4745 27.6613C33.4745 25.1779 32.7587 22.7649 31.4046 20.6833C30.6224 19.4809 30.209 18.0872 30.209 16.6529ZM24.9025 29.25H23.0975L15.8366 24.703C16.0988 23.6841 16.4971 22.7021 17.0237 21.7808H30.9763C31.5029 22.7022 31.9011 23.6841 32.1634 24.703L24.9025 29.25Z" fill="#1F2A37"/>
<path d="M35.5311 15.961H32.9363L33.1828 15.7145C33.3658 15.5315 33.3658 15.2347 33.1828 15.0516C32.9997 14.8686 32.7029 14.8686 32.5198 15.0516L31.4731 16.0982C31.2901 16.2813 31.2901 16.5781 31.4731 16.7612L32.5198 17.8079C32.6114 17.8994 32.7313 17.9452 32.8513 17.9452C32.9712 17.9452 33.0912 17.8994 33.1827 17.8079C33.3658 17.6248 33.3658 17.328 33.1827 17.1449L32.9362 16.8984H35.5311C35.7899 16.8984 35.9998 16.6885 35.9998 16.4297C35.9998 16.1708 35.79 15.961 35.5311 15.961Z" fill="#1F2A37"/>
<path d="M14.8173 17.1449C14.6342 17.328 14.6342 17.6248 14.8173 17.8079C14.9088 17.8994 15.0288 17.9452 15.1487 17.9452C15.2687 17.9452 15.3886 17.8994 15.4802 17.8079L16.5269 16.7612C16.7099 16.5782 16.7099 16.2814 16.5269 16.0983L15.4802 15.0516C15.2971 14.8686 15.0004 14.8686 14.8172 15.0516C14.6342 15.2346 14.6342 15.5314 14.8172 15.7145L15.0637 15.961H12.4688C12.21 15.961 12.0001 16.1709 12.0001 16.4297C12.0001 16.6886 12.21 16.8985 12.4688 16.8985H15.0637L14.8173 17.1449Z" fill="#1F2A37"/>
<path d="M24 18.8438C24.1233 18.8438 24.2442 18.7936 24.3313 18.7064C24.4185 18.6192 24.4687 18.4983 24.4687 18.375C24.4687 18.2517 24.4186 18.1308 24.3313 18.0436C24.2442 17.9564 24.1233 17.9062 24 17.9062C23.8767 17.9062 23.7558 17.9564 23.6686 18.0436C23.5814 18.1308 23.5312 18.2517 23.5312 18.375C23.5312 18.4983 23.5813 18.6192 23.6686 18.7064C23.7558 18.7936 23.8767 18.8438 24 18.8438Z" fill="#1F2A37"/>
<path d="M32.4885 30.8235C32.3647 30.8235 32.2443 30.8732 32.1571 30.9609C32.0694 31.048 32.0197 31.169 32.0197 31.2922C32.0197 31.4156 32.0694 31.536 32.1571 31.6236C32.2443 31.7108 32.3648 31.761 32.4885 31.761C32.6118 31.761 32.7327 31.7109 32.8194 31.6236C32.9071 31.536 32.9568 31.4156 32.9568 31.2922C32.9568 31.169 32.9071 31.048 32.8194 30.9609C32.7327 30.8732 32.6118 30.8235 32.4885 30.8235Z" fill="#1F2A37"/>
</g>
<defs>
<clipPath id="clip0_19925_99511">
<rect width="24" height="24" fill="white" transform="translate(12 12)"/>
</clipPath>
</defs>
</svg>
