<svg width="28" height="28" viewBox="0 0 28 28" fill="none" xmlns="http://www.w3.org/2000/svg">
<g clip-path="url(#clip0_19925_99483)">
<path d="M13.9988 4.97876C9.02444 4.97876 4.97748 9.02572 4.97748 14.0001C4.97748 18.9744 9.02444 23.0214 13.9988 23.0214C18.9732 23.0214 23.0201 18.9744 23.0201 14.0001C23.0201 9.02572 18.9732 4.97876 13.9988 4.97876ZM13.9988 21.3812C9.92887 21.3812 6.61772 18.07 6.61772 14.0001C6.61772 9.93015 9.92887 6.619 13.9988 6.619C18.0687 6.619 21.3799 9.93015 21.3799 14.0001C21.3799 18.07 18.0688 21.3812 13.9988 21.3812Z" fill="#1F2A37"/>
<path d="M17.5195 10.9597L13.1787 15.3005L10.4781 12.5999C10.1578 12.2797 9.63855 12.2797 9.31826 12.5999C8.99798 12.9202 8.99798 13.4395 9.31826 13.7598L12.5987 17.0402C12.7589 17.2004 12.9688 17.2805 13.1786 17.2805C13.3885 17.2805 13.5984 17.2004 13.7585 17.0402L18.6792 12.1195C18.9995 11.7992 18.9995 11.28 18.6792 10.9597C18.359 10.6394 17.8397 10.6394 17.5195 10.9597Z" fill="#1F2A37"/>
<path d="M26.8257 8.24997C26.8229 8.24828 23.9612 6.53532 23.9612 6.53532L23.3189 3.87496C23.0339 2.69448 21.9484 1.90547 20.7374 1.9994L17.4764 2.25178C17.4764 2.25178 15.5979 0.593929 15.5942 0.590813C14.6698 -0.196612 13.3278 -0.196612 12.4033 0.590813C12.3997 0.593929 10.5212 2.25178 10.5212 2.25178L7.26015 1.9994C6.05889 1.90612 4.98175 2.68135 4.68596 3.84554L3.7917 6.69497C3.7917 6.69497 1.17786 8.24784 1.17442 8.24997C0.13981 8.88584 -0.274897 10.1621 0.188416 11.2847L1.30422 13.9886L0.188416 16.6925C-0.274897 17.8151 0.13981 19.0914 1.17447 19.7272C1.17765 19.7292 4.03374 21.431 4.03374 21.431L4.67879 24.1022C4.94845 25.2192 5.93467 25.9855 7.06567 25.9853C7.23866 25.9853 7.04435 25.9919 10.4873 25.728C10.4873 25.728 12.4003 27.4068 12.4034 27.4093C12.8656 27.8031 13.4322 27.9999 13.9989 27.9999C14.5655 27.9999 15.1321 27.8031 15.5943 27.4093C15.5974 27.4067 17.5104 25.728 17.5104 25.728L20.7375 25.9778C21.9481 26.0713 23.034 25.2827 23.3189 24.1022L23.9613 21.4418C27.463 19.3457 26.7206 19.7921 26.8257 19.7272C27.8603 19.0913 28.275 17.815 27.8117 16.6925L26.6959 13.9885L27.8117 11.2846C28.2749 10.1621 27.8603 8.88589 26.8257 8.24997ZM25.0505 14.3015L26.2954 17.3183C26.4494 17.6912 26.3125 18.1152 25.9701 18.3278L22.8236 20.2113C22.6348 20.3243 22.4993 20.5085 22.4476 20.7225L21.7244 23.7174C21.6295 24.1108 21.2682 24.3736 20.864 24.3425L17.2924 24.0661C17.0725 24.0491 16.8542 24.1216 16.6882 24.2674L14.5268 26.1641C14.22 26.4223 13.7776 26.4222 13.4708 26.164L11.3095 24.2674C11.1434 24.1216 10.9252 24.0489 10.7053 24.0661L7.13374 24.3425C6.72986 24.3737 6.36824 24.1108 6.27327 23.7173L5.54725 20.7106C5.49547 20.4961 5.35938 20.3115 5.16983 20.1986L2.02937 18.3273C1.68743 18.1145 1.55085 17.691 1.70471 17.3182L2.94965 14.3014C3.03237 14.101 3.03237 13.8761 2.94965 13.6757L1.70455 10.6589C1.5508 10.2864 1.68721 9.86304 2.02877 9.65013L4.89919 7.94489C5.07283 7.84171 5.2023 7.67813 5.26277 7.4854C6.32062 4.11268 6.26091 4.31066 6.27316 4.25987C6.36813 3.86643 6.72877 3.60322 7.13363 3.63472L10.7405 3.91389C10.9618 3.93094 11.1802 3.85779 11.3465 3.7111L13.4716 1.83554C13.7779 1.57824 14.2195 1.57824 14.5259 1.83543L16.6511 3.7111C16.8173 3.8579 17.0363 3.93094 17.257 3.91389L20.8639 3.63472C21.2674 3.60355 21.6294 3.86637 21.7244 4.25992L22.4476 7.25478C22.4992 7.46872 22.6347 7.65292 22.8236 7.76599L25.97 9.64942C26.3125 9.86205 26.4494 10.2859 26.2954 10.6589L25.0504 13.6757C24.9678 13.8762 24.9678 14.1011 25.0505 14.3015Z" fill="#1F2A37"/>
</g>
<defs>
<clipPath id="clip0_19925_99483">
<rect width="28" height="28" fill="white"/>
</clipPath>
</defs>
</svg>
