<svg width="49" height="48" viewBox="0 0 49 48" fill="none" xmlns="http://www.w3.org/2000/svg">
<rect x="0.666702" width="48" height="48" rx="24" fill="#EBE7F8"/>
<g clip-path="url(#clip0_19925_99526)">
<path d="M35.7326 22.2764L34.3095 23.5286C34.2121 21.6064 33.55 19.7555 32.4061 18.2076C31.1043 16.4389 29.2366 15.1689 27.1133 14.6085C24.9061 14.0173 22.5611 14.2222 20.4899 15.1872C18.4186 16.1522 16.7533 17.8157 15.786 19.8859C15.7538 19.953 15.7352 20.0258 15.7313 20.1002C15.7274 20.1745 15.7383 20.2489 15.7634 20.3189C15.7885 20.389 15.8272 20.4534 15.8774 20.5084C15.9275 20.5634 15.9881 20.6079 16.0556 20.6394C16.1231 20.6708 16.1961 20.6885 16.2705 20.6915C16.3448 20.6945 16.4191 20.6827 16.4889 20.6568C16.5586 20.6309 16.6226 20.5913 16.677 20.5405C16.7314 20.4897 16.7752 20.4286 16.8058 20.3608C17.603 18.6555 18.9377 17.2588 20.6051 16.385C22.2725 15.5113 24.1806 15.2087 26.0365 15.5237C27.8924 15.8388 29.5937 16.754 30.8794 18.129C32.1651 19.504 32.9642 21.2629 33.1541 23.1358L32.2303 21.9405C32.1851 21.882 32.1289 21.833 32.0648 21.7963C32.0007 21.7596 31.93 21.7359 31.8567 21.7265C31.7834 21.7171 31.709 21.7222 31.6377 21.7416C31.5664 21.761 31.4997 21.7942 31.4412 21.8394C31.3828 21.8845 31.3338 21.9408 31.2971 22.0049C31.2604 22.069 31.2366 22.1397 31.2272 22.2129C31.2179 22.2862 31.223 22.3606 31.2424 22.4319C31.2617 22.5032 31.2949 22.57 31.3401 22.6284L33.2788 25.1372C33.3258 25.198 33.3848 25.2485 33.4521 25.2857C33.5194 25.3228 33.5936 25.3458 33.6702 25.3531C33.6881 25.3548 33.706 25.3557 33.7239 25.3557C33.8607 25.3557 33.9928 25.3058 34.0955 25.2155L36.4757 23.121C36.5313 23.0722 36.5768 23.013 36.6095 22.9466C36.6422 22.8803 36.6615 22.8082 36.6663 22.7344C36.6711 22.6605 36.6613 22.5865 36.6374 22.5165C36.6136 22.4465 36.5761 22.3819 36.5273 22.3263C36.4784 22.2708 36.4191 22.2255 36.3527 22.1929C36.2863 22.1603 36.2141 22.1412 36.1403 22.1365C36.0664 22.1319 35.9924 22.1419 35.9225 22.1659C35.8525 22.1898 35.788 22.2274 35.7325 22.2764H35.7326Z" fill="#1F2A37"/>
<path d="M33.1352 27.3667C33.0682 27.3355 32.9958 27.3178 32.922 27.3146C32.8482 27.3115 32.7745 27.3228 32.7051 27.3481C32.6357 27.3735 32.5719 27.4122 32.5175 27.4621C32.4631 27.5121 32.419 27.5722 32.3878 27.6392C31.584 29.3584 30.2342 30.7635 28.5485 31.6356C26.8629 32.5077 24.9362 32.7978 23.0685 32.4607C21.2009 32.1235 19.4971 31.1782 18.2228 29.7718C16.9484 28.3655 16.175 26.5771 16.023 24.6854L17.1438 25.9575C17.1927 26.0129 17.2519 26.0582 17.3183 26.0907C17.3846 26.1232 17.4567 26.1423 17.5304 26.147C17.6041 26.1516 17.678 26.1417 17.7479 26.1178C17.8178 26.0939 17.8823 26.0565 17.9378 26.0076C17.9932 25.9588 18.0384 25.8995 18.071 25.8332C18.1035 25.7669 18.1226 25.6948 18.1273 25.6211C18.1319 25.5473 18.122 25.4734 18.0981 25.4035C18.0742 25.3336 18.0367 25.2691 17.9879 25.2137L15.8917 22.8349C15.8409 22.7772 15.7788 22.7306 15.7092 22.6978C15.6396 22.6651 15.5641 22.647 15.4872 22.6446C15.4104 22.6422 15.3339 22.6555 15.2624 22.6839C15.1909 22.7122 15.126 22.7549 15.0717 22.8093L12.831 25.0526C12.7261 25.1583 12.6673 25.3013 12.6676 25.4502C12.6679 25.5991 12.7273 25.7419 12.8326 25.8471C12.938 25.9523 13.0808 26.0115 13.2298 26.0116C13.3787 26.0117 13.5216 25.9527 13.6271 25.8476L14.8903 24.5828C15.0203 26.7415 15.8663 28.7953 17.2944 30.4194C18.7225 32.0434 20.6512 33.1451 22.7755 33.5502C24.8999 33.9554 27.0986 33.6408 29.0242 32.6563C30.9497 31.6717 32.4921 30.0734 33.4075 28.1141C33.4705 27.9789 33.4772 27.8242 33.4262 27.684C33.3751 27.5438 33.2704 27.4297 33.1352 27.3667Z" fill="#1F2A37"/>
<path d="M24.5968 18.4835C24.4476 18.4835 24.3046 18.5428 24.1991 18.6483C24.0936 18.7538 24.0343 18.8968 24.0343 19.046V24.0001C24.0343 24.1492 24.0936 24.2923 24.1991 24.3978C24.3046 24.5033 24.4476 24.5626 24.5968 24.5626H29.0354C29.1846 24.5626 29.3277 24.5033 29.4332 24.3978C29.5387 24.2923 29.5979 24.1492 29.5979 24.0001C29.5979 23.8509 29.5387 23.7078 29.4332 23.6023C29.3277 23.4968 29.1846 23.4376 29.0354 23.4376H25.1593V19.046C25.1593 18.8968 25.1 18.7538 24.9946 18.6483C24.8891 18.5428 24.746 18.4835 24.5968 18.4835Z" fill="#1F2A37"/>
</g>
<defs>
<clipPath id="clip0_19925_99526">
<rect width="24" height="24" fill="white" transform="translate(12.6667 12)"/>
</clipPath>
</defs>
</svg>
