<svg width="49" height="48" viewBox="0 0 49 48" fill="none" xmlns="http://www.w3.org/2000/svg">
<rect x="0.333374" width="48" height="48" rx="24" fill="#EBE7F8"/>
<g clip-path="url(#clip0_19925_99504)">
<path d="M16.4134 23.956C16.4017 23.8506 16.3486 23.7541 16.2658 23.6877C16.183 23.6214 16.0772 23.5907 15.9718 23.6024C15.8663 23.6141 15.7698 23.6672 15.7035 23.75C15.6372 23.8328 15.6065 23.9386 15.6182 24.044C15.6794 24.5994 15.7756 25.1503 15.9062 25.6936C15.931 25.7968 15.9958 25.8859 16.0863 25.9413C16.1768 25.9967 16.2856 26.0138 16.3888 25.989C16.4919 25.9642 16.581 25.8994 16.6364 25.8089C16.6918 25.7184 16.709 25.6096 16.6842 25.5064C16.5613 24.9958 16.4708 24.478 16.4134 23.956Z" fill="#1F2A37"/>
<path d="M19.2702 17.6375C16.931 17.8723 15.5334 20.3003 15.5334 22.5119C15.5334 22.618 15.5755 22.7197 15.6505 22.7948C15.7256 22.8698 15.8273 22.9119 15.9334 22.9119C16.0395 22.9119 16.1412 22.8698 16.2162 22.7948C16.2912 22.7197 16.3334 22.618 16.3334 22.5119C16.3334 20.6559 17.4618 18.6231 19.3498 18.4319C19.4553 18.4213 19.5524 18.3692 19.6195 18.2871C19.6866 18.2049 19.7184 18.0995 19.7078 17.9939C19.6972 17.8884 19.6451 17.7913 19.5629 17.7242C19.4808 17.6571 19.3753 17.6253 19.2698 17.6359L19.2702 17.6375Z" fill="#1F2A37"/>
<path d="M35.3862 32.2156L35.7502 31.9028C35.8528 31.8172 35.9322 31.7071 35.9811 31.5828C36.0301 31.4584 36.0469 31.3238 36.0302 31.1912C36.0151 31.0615 35.9679 30.9377 35.8928 30.831C35.8177 30.7242 35.7171 30.638 35.6002 30.58L35.1602 30.3552L35.6626 28.96C35.7134 28.8179 35.7228 28.6644 35.6897 28.5172C35.6565 28.37 35.5822 28.2353 35.4754 28.1288C35.3677 28.0209 35.2315 27.9459 35.0828 27.9124C34.9341 27.8789 34.7789 27.8883 34.6354 27.9396L33.5734 28.32C34.3447 26.4811 34.7392 24.5061 34.7334 22.512C34.7334 19.1816 32.4618 16.3412 29.5622 16.046C28.2511 15.8763 26.9191 16.0977 25.7334 16.6824C26.1778 14.8968 27.239 14.2912 27.2806 14.268C27.5584 14.1205 27.7673 13.8698 27.8621 13.5699C27.957 13.27 27.9303 12.9448 27.7877 12.6644C27.6452 12.3839 27.3983 12.1707 27.1001 12.0705C26.8019 11.9703 26.4763 11.9913 26.1934 12.1288C25.2014 12.7155 24.4127 13.5918 23.9334 14.64C23.4741 13.9797 22.8874 13.4181 22.2078 12.988C21.4555 12.4957 20.6027 12.1777 19.7117 12.0574C18.8207 11.937 17.9141 12.0173 17.0582 12.2924C16.8294 12.3641 16.6325 12.513 16.5012 12.7137C16.3699 12.9144 16.3123 13.1544 16.3382 13.3928C16.5142 14.4983 16.9675 15.5411 17.6558 16.424C15.4842 17.3468 13.9334 19.76 13.9334 22.512C13.9182 25.226 14.6505 27.8918 16.0502 30.2172C16.2174 30.4972 16.395 30.7672 16.5762 31.0316L14.0162 31.6556C13.4928 31.7833 13.0343 32.0983 12.7274 32.5411C12.4205 32.9839 12.2864 33.5237 12.3506 34.0587C12.4147 34.5936 12.6726 35.0865 13.0754 35.4442C13.4783 35.8019 13.9982 35.9996 14.537 36H18.3298H18.3334H18.3366H22.727H22.7334H22.7398H27.1234C27.127 36 27.1298 36.002 27.1334 36.002C27.137 36.002 27.1398 36 27.1434 36H29.0806C29.6388 35.9998 30.1906 35.8813 30.6997 35.6524C31.2088 35.4235 31.6636 35.0894 32.0342 34.672C32.1248 34.5697 32.2103 34.4629 32.2902 34.352L35.4466 34.6936C35.4758 34.6968 35.5052 34.6984 35.5346 34.6984C35.6787 34.6978 35.8201 34.6584 35.9437 34.5841C36.0672 34.5099 36.1685 34.4036 36.2366 34.2766C36.3048 34.1495 36.3373 34.0064 36.3308 33.8624C36.3244 33.7184 36.2791 33.5788 36.1998 33.4584L35.3862 32.2156ZM26.555 12.8424C26.6021 12.8189 26.6533 12.805 26.7058 12.8013C26.7583 12.7977 26.8109 12.8045 26.8608 12.8212C26.9107 12.838 26.9567 12.8644 26.9964 12.899C27.036 12.9336 27.0684 12.9756 27.0918 13.0228C27.1379 13.1189 27.1442 13.2293 27.1091 13.33C27.074 13.4307 27.0005 13.5134 26.9046 13.56C26.7282 13.6568 25.2194 14.564 24.8318 17.1296C24.5671 17.2053 24.2886 17.219 24.0178 17.1696C24.4306 14.04 26.3374 12.9552 26.555 12.8424ZM17.1334 13.3104C17.127 13.2543 17.1406 13.1978 17.1718 13.1508C17.2029 13.1037 17.2497 13.0692 17.3038 13.0532C18.0462 12.8094 18.8342 12.7375 19.6085 12.8427C20.3827 12.948 21.123 13.2277 21.7734 13.6608C22.5286 14.1288 23.1433 14.7922 23.5526 15.5808C23.4188 15.9988 23.3186 16.4268 23.253 16.8608C23.0032 16.7106 22.7422 16.5801 22.4722 16.4704C21.7289 15.2794 20.5731 14.4038 19.2254 14.0108C19.1221 13.9865 19.0134 14.0042 18.9232 14.0601C18.833 14.1159 18.7687 14.2053 18.7444 14.3086C18.7201 14.4119 18.7378 14.5205 18.7937 14.6108C18.8495 14.701 18.9389 14.7653 19.0422 14.7896C19.8579 15.0378 20.5957 15.4925 21.1842 16.1096C20.4978 15.9933 19.7987 15.9722 19.1066 16.0468C18.8922 16.0698 18.6796 16.1069 18.4702 16.158C17.7782 15.3452 17.3166 14.362 17.1334 13.3104ZM16.7334 29.8064C15.4099 27.6045 14.718 25.0809 14.7334 22.512C14.7334 19.9448 16.3986 17.122 19.1866 16.84C20.4807 16.6591 21.7978 16.9235 22.9218 17.59C23.3445 17.8558 23.8338 17.9969 24.3332 17.9969C24.8326 17.9969 25.3218 17.8558 25.7446 17.59C26.8699 16.9263 28.1863 16.6621 29.4806 16.84C32.2678 17.1256 33.9334 19.9476 33.9334 22.512C33.9408 24.655 33.459 26.7714 32.5246 28.7L31.6178 29.0268C31.525 28.9468 31.4302 28.8732 31.3298 28.8036C30.8709 28.4856 30.3499 28.2685 29.801 28.1666C29.2521 28.0646 28.6878 28.0803 28.1454 28.2124L17.4134 30.828C17.177 30.5012 16.949 30.16 16.7366 29.8064H16.7334ZM31.4358 34.1388C31.1403 34.4716 30.7776 34.738 30.3716 34.9205C29.9657 35.103 29.5257 35.1975 29.0806 35.1976H27.5334V34C27.5334 33.8939 27.4912 33.7921 27.4162 33.7171C27.3412 33.6421 27.2395 33.6 27.1334 33.6C27.0273 33.6 26.9255 33.6421 26.8505 33.7171C26.7755 33.7921 26.7334 33.8939 26.7334 34V35.2H23.1334V34C23.1334 33.8939 23.0912 33.7921 23.0162 33.7171C22.9412 33.6421 22.8395 33.6 22.7334 33.6C22.6273 33.6 22.5255 33.6421 22.4505 33.7171C22.3755 33.7921 22.3334 33.8939 22.3334 34V35.2H18.7334V34C18.7334 33.8939 18.6912 33.7921 18.6162 33.7171C18.5412 33.6421 18.4395 33.6 18.3334 33.6C18.2273 33.6 18.1256 33.6421 18.0505 33.7171C17.9755 33.7921 17.9334 33.8939 17.9334 34V35.2H14.537C14.1936 35.2003 13.862 35.0747 13.6049 34.847C13.3479 34.6192 13.1834 34.3051 13.1424 33.9642C13.1014 33.6232 13.1869 33.2791 13.3827 32.9969C13.5784 32.7148 13.8709 32.5142 14.2046 32.4332L20.3334 30.9396V32C20.3334 32.1061 20.3755 32.2078 20.4505 32.2828C20.5255 32.3578 20.6273 32.4 20.7334 32.4C20.8395 32.4 20.9412 32.3578 21.0162 32.2828C21.0912 32.2078 21.1334 32.1061 21.1334 32V30.7448L24.3334 29.9648V31.2C24.3334 31.3061 24.3755 31.4078 24.4505 31.4828C24.5256 31.5578 24.6273 31.6 24.7334 31.6C24.8395 31.6 24.9412 31.5578 25.0162 31.4828C25.0912 31.4078 25.1334 31.3061 25.1334 31.2V29.77L28.3334 28.99C28.9852 28.8311 29.6708 28.8846 30.2901 29.1427C30.9094 29.4007 31.4302 29.8498 31.7763 30.4246C32.1225 30.9993 32.276 31.6696 32.2146 32.3377C32.1531 33.0058 31.8798 33.6369 31.4346 34.1388H31.4358ZM32.7158 33.5892C32.9881 32.9491 33.0861 32.2483 32.9998 31.5581C32.9134 30.8679 32.6458 30.2128 32.2242 29.6596L34.9098 28.6928L34.4098 30.0864C34.3434 30.2693 34.3464 30.4702 34.4183 30.6511C34.4902 30.8319 34.6259 30.9801 34.7998 31.0676L35.2342 31.2924L34.8646 31.6096C34.7168 31.7361 34.6204 31.9124 34.5938 32.1052C34.5672 32.2979 34.6122 32.4937 34.7202 32.6556L35.5334 33.8944L32.7158 33.5892Z" fill="black"/>
</g>
<defs>
<clipPath id="clip0_19925_99504">
<rect width="24" height="24" fill="white" transform="translate(12.3334 12)"/>
</clipPath>
</defs>
</svg>
