<svg width="48" height="48" viewBox="0 0 48 48" fill="none" xmlns="http://www.w3.org/2000/svg">
<rect width="48" height="48" rx="24" fill="white"/>
<g clip-path="url(#clip0_1_6226)">
<path d="M32.1129 32.8891C31.8608 32.8295 31.6085 32.9861 31.5493 33.2381L31.0353 35.424C30.976 35.676 31.1323 35.9284 31.3843 35.9876C31.4204 35.9961 31.4565 36.0002 31.492 36.0002C31.7046 36.0002 31.8972 35.8546 31.9479 35.6386L32.4619 33.4527C32.5212 33.2007 32.3649 32.9483 32.1129 32.8891Z" fill="#374151"/>
<path d="M30.209 16.6529C30.209 15.4455 30.5492 14.2674 31.1927 13.2457L31.5248 12.7187C31.6627 12.4996 31.5971 12.2102 31.378 12.0722C31.1589 11.9342 30.8696 11.9999 30.7316 12.219L30.3995 12.746C29.6616 13.9175 29.2715 15.2685 29.2715 16.6529C29.2715 18.1314 29.6616 19.5714 30.4027 20.8433H17.5973C18.3384 19.5714 18.7285 18.1313 18.7285 16.6529C18.7285 15.2685 18.3384 13.9175 17.6005 12.746L17.2684 12.219C17.1304 11.9999 16.8411 11.9342 16.622 12.0722C16.4029 12.2102 16.3372 12.4996 16.4752 12.7187L16.8073 13.2457C17.4508 14.2674 17.791 15.4455 17.791 16.6529C17.791 18.0872 17.3776 19.4809 16.5954 20.6832C15.2412 22.7648 14.5254 25.1778 14.5254 27.6612C14.5254 28.646 14.6397 29.6314 14.8651 30.5901L16.0521 35.6384C16.1028 35.8543 16.2953 35.9999 16.508 35.9999C16.5435 35.9999 16.5796 35.9959 16.6157 35.9874C16.8677 35.9281 17.024 35.6758 16.9647 35.4238L15.7777 30.3756C15.5688 29.4871 15.4629 28.5738 15.4629 27.6612C15.4629 26.9931 15.5192 26.3305 15.6292 25.6793L22.4941 29.9782V35.5312C22.4941 35.79 22.704 35.9999 22.9628 35.9999C23.2217 35.9999 23.4316 35.79 23.4316 35.5312V30.1874H24.5685V35.5312C24.5685 35.79 24.7784 35.9999 25.0372 35.9999C25.296 35.9999 25.5059 35.79 25.5059 35.5312V29.9782L32.3708 25.6793C32.4808 26.3305 32.5371 26.9931 32.5371 27.6612C32.5371 28.1622 32.5049 28.6681 32.4414 29.1649C32.4086 29.4217 32.5901 29.6564 32.8469 29.6893C32.8671 29.6919 32.8871 29.6932 32.9069 29.6932C33.1393 29.6932 33.341 29.5204 33.3713 29.2838C33.4399 28.7477 33.4746 28.2019 33.4746 27.6613C33.4746 25.1779 32.7588 22.7649 31.4046 20.6833C30.6225 19.4809 30.209 18.0872 30.209 16.6529ZM24.9025 29.25H23.0975L15.8366 24.703C16.0989 23.6842 16.4971 22.7021 17.0237 21.7808H30.9764C31.503 22.7022 31.9012 23.6842 32.1634 24.703L24.9025 29.25Z" fill="#374151"/>
<path d="M35.5312 15.9612H32.9363L33.1828 15.7148C33.3658 15.5317 33.3658 15.2349 33.1828 15.0518C32.9997 14.8688 32.703 14.8688 32.5198 15.0518L31.4732 16.0985C31.2901 16.2815 31.2901 16.5783 31.4732 16.7614L32.5198 17.8081C32.6114 17.8996 32.7313 17.9454 32.8513 17.9454C32.9713 17.9454 33.0912 17.8996 33.1828 17.8081C33.3658 17.6251 33.3658 17.3282 33.1828 17.1451L32.9363 16.8987H35.5311C35.79 16.8987 35.9999 16.6888 35.9999 16.4299C35.9999 16.1711 35.79 15.9612 35.5312 15.9612Z" fill="#374151"/>
<path d="M14.8173 17.1452C14.6343 17.3282 14.6343 17.6251 14.8173 17.8081C14.9089 17.8996 15.0288 17.9454 15.1488 17.9454C15.2687 17.9454 15.3887 17.8996 15.4802 17.8081L16.5269 16.7615C16.7099 16.5784 16.7099 16.2816 16.5269 16.0985L15.4802 15.0518C15.2971 14.8688 15.0004 14.8688 14.8173 15.0518C14.6342 15.2348 14.6342 15.5317 14.8173 15.7148L15.0637 15.9612H12.4689C12.21 15.9612 12.0001 16.1711 12.0001 16.43C12.0001 16.6888 12.21 16.8987 12.4689 16.8987H15.0637L14.8173 17.1452Z" fill="#374151"/>
<path d="M24 18.8438C24.1233 18.8438 24.2442 18.7936 24.3314 18.7064C24.4185 18.6192 24.4688 18.4983 24.4688 18.375C24.4688 18.2517 24.4186 18.1308 24.3314 18.0436C24.2442 17.9564 24.1233 17.9062 24 17.9062C23.8767 17.9062 23.7558 17.9564 23.6686 18.0436C23.5814 18.1308 23.5312 18.2517 23.5312 18.375C23.5312 18.4983 23.5814 18.6192 23.6686 18.7064C23.7558 18.7936 23.8767 18.8438 24 18.8438Z" fill="#374151"/>
<path d="M32.4885 30.8232C32.3648 30.8232 32.2443 30.873 32.1571 30.9606C32.0695 31.0478 32.0198 31.1687 32.0198 31.292C32.0198 31.4153 32.0695 31.5357 32.1571 31.6234C32.2443 31.7106 32.3648 31.7607 32.4885 31.7607C32.6118 31.7607 32.7327 31.7106 32.8195 31.6234C32.9071 31.5357 32.9569 31.4153 32.9569 31.292C32.9569 31.1687 32.9071 31.0478 32.8195 30.9606C32.7327 30.873 32.6118 30.8232 32.4885 30.8232Z" fill="#374151"/>
</g>
<defs>
<clipPath id="clip0_1_6226">
<rect width="24" height="24" fill="white" transform="translate(12 12)"/>
</clipPath>
</defs>
</svg>
