<svg width="16" height="16" viewBox="0 0 16 16" fill="none" xmlns="http://www.w3.org/2000/svg">
<g clip-path="url(#clip0_13951_28481)">
<path d="M8.00002 0.399902C3.58882 0.399902 2.15004e-05 3.62977 2.15004e-05 7.5999C2.15004e-05 8.98764 0.438955 10.3319 1.27149 11.4943C1.11389 13.2375 0.691488 14.5316 0.0781548 15.1447C-0.00291183 15.2258 -0.0231785 15.3498 0.0280215 15.4522C0.0733548 15.5436 0.166688 15.5999 0.266688 15.5999C0.278955 15.5999 0.291221 15.5991 0.303755 15.5972C0.411755 15.582 2.92055 15.221 4.73522 14.1735C5.76562 14.5892 6.86322 14.7999 8.00002 14.7999C12.4112 14.7999 16 11.57 16 7.5999C16 3.62977 12.4112 0.399902 8.00002 0.399902ZM4.26669 8.66657C3.67842 8.66657 3.20002 8.18817 3.20002 7.5999C3.20002 7.01164 3.67842 6.53324 4.26669 6.53324C4.85495 6.53324 5.33335 7.01164 5.33335 7.5999C5.33335 8.18817 4.85495 8.66657 4.26669 8.66657ZM8.00002 8.66657C7.41175 8.66657 6.93335 8.18817 6.93335 7.5999C6.93335 7.01164 7.41175 6.53324 8.00002 6.53324C8.58829 6.53324 9.06669 7.01164 9.06669 7.5999C9.06669 8.18817 8.58829 8.66657 8.00002 8.66657ZM11.7334 8.66657C11.1451 8.66657 10.6667 8.18817 10.6667 7.5999C10.6667 7.01164 11.1451 6.53324 11.7334 6.53324C12.3216 6.53324 12.8 7.01164 12.8 7.5999C12.8 8.18817 12.3216 8.66657 11.7334 8.66657Z" fill="#363DC3"/>
</g>
<defs>
<clipPath id="clip0_13951_28481">
<rect width="16" height="16" fill="white"/>
</clipPath>
</defs>
</svg>
