<svg width="65" height="64" viewBox="0 0 65 64" fill="none" xmlns="http://www.w3.org/2000/svg">
<rect x="0.666504" width="64" height="64" rx="32" fill="url(#paint0_linear_15980_34992)"/>
<path d="M43.395 41.6631C41.9519 41.6631 40.6615 42.631 40.2567 44.0167L40.197 44.2213H22.9842C21.5636 44.2213 20.4076 43.0656 20.4076 41.6449C20.4076 40.224 21.5636 39.0683 22.9842 39.0683H33.0951C35.2995 39.0683 37.0928 37.275 37.0928 35.0706V32.7327L42.5358 29.575C43.324 29.1177 43.88 28.3434 44.0613 27.4503L45.5749 19.9954C45.7662 19.0531 45.5269 18.0858 44.9186 17.3417C44.3103 16.5972 43.4098 16.1703 42.4485 16.1703H41.7143L41.6324 16.0933C41.4312 15.9048 41.1688 15.8008 40.8937 15.8008H39.2328C38.6374 15.8008 38.1527 16.2854 38.1527 16.8809C38.1527 17.4764 38.6374 17.961 39.2328 17.961H40.8937C41.1688 17.961 41.4312 17.8573 41.6324 17.6686L41.7143 17.5915H42.4485C42.9818 17.5915 43.4809 17.8283 43.8183 18.241C44.1557 18.6538 44.2881 19.1901 44.1821 19.7126L42.6685 27.1675C42.5679 27.6626 42.2598 28.0921 41.8226 28.3457L36.3821 31.5022L30.9417 28.3457C30.5048 28.0921 30.1964 27.6626 30.0958 27.1675L28.5825 19.7126C28.4761 19.1901 28.6089 18.6538 28.9463 18.241C29.2837 17.8283 29.7828 17.5915 30.3158 17.5915H31.1557L31.2379 17.6686C31.4388 17.8573 31.7012 17.961 31.9763 17.961H33.5317C34.1272 17.961 34.6119 17.4764 34.6119 16.8809C34.6119 16.2854 34.1272 15.8008 33.5317 15.8008H31.9763C31.7012 15.8008 31.4388 15.9048 31.2379 16.0933L31.1557 16.1703H30.3158C29.3545 16.1703 28.4543 16.5972 27.846 17.3417C27.2374 18.0858 26.9984 19.0531 27.1894 19.9954L28.703 27.4503C28.8843 28.3434 29.4403 29.1177 30.2285 29.575L35.6715 32.7327V35.0706C35.6715 36.4913 34.5158 37.647 33.0951 37.647H22.9842C20.7796 37.647 18.9863 39.4406 18.9863 41.6449C18.9863 43.8493 20.7796 45.6426 22.9842 45.6426H40.197L40.2567 45.8469C40.6615 47.2329 41.9519 48.2008 43.395 48.2008C45.1974 48.2008 46.6639 46.7344 46.6639 44.932C46.6639 43.1296 45.1974 41.6631 43.395 41.6631ZM44.6804 46.2571C44.6719 46.2654 44.6634 46.2736 44.6548 46.2816C44.6392 46.2963 44.6233 46.3106 44.6071 46.3248C44.602 46.3293 44.5968 46.3341 44.5917 46.3387L44.5536 46.3717L44.5502 46.3739C44.3487 46.5399 44.1187 46.6593 43.8658 46.7287C43.7063 46.7724 43.5423 46.7946 43.378 46.7946C42.548 46.7946 41.8149 46.2355 41.5958 45.4351C41.4122 44.7648 41.6239 44.0423 42.1356 43.5787C42.4579 43.2785 42.8865 43.0954 43.3547 43.0852C43.3683 43.0849 43.3817 43.0844 43.3953 43.0844C44.0957 43.0844 44.7063 43.4761 45.0195 44.0519C45.1619 44.3137 45.2429 44.6136 45.2429 44.932C45.2429 44.9652 45.2421 44.9982 45.2401 45.0309C45.2398 45.0377 45.2389 45.0445 45.2387 45.0511C45.237 45.0772 45.235 45.1034 45.2321 45.1292C45.2313 45.1366 45.2301 45.144 45.2293 45.1517C45.2262 45.177 45.223 45.202 45.2191 45.227C45.2179 45.2344 45.2165 45.2418 45.2151 45.2489C45.2108 45.2739 45.206 45.2986 45.2006 45.3234C45.1989 45.3305 45.1972 45.3379 45.1955 45.345C45.1898 45.3694 45.1838 45.3939 45.1773 45.418C45.1753 45.4254 45.173 45.4325 45.171 45.4399C45.1642 45.4638 45.1568 45.4877 45.1491 45.511C45.1466 45.5184 45.1443 45.5257 45.1417 45.5331C45.1338 45.5562 45.1253 45.5792 45.1164 45.6016C45.1136 45.6093 45.1105 45.617 45.1073 45.6244C45.0982 45.6465 45.0889 45.6684 45.0789 45.6903C45.0755 45.698 45.0721 45.7057 45.0684 45.7134C45.0582 45.735 45.0477 45.7563 45.0366 45.7776C45.0326 45.785 45.0292 45.7927 45.0252 45.8C45.0133 45.8222 45.0008 45.8441 44.988 45.8657C44.9846 45.8717 44.9811 45.8776 44.9777 45.8836C44.9612 45.9109 44.9439 45.9379 44.9263 45.9643C44.9251 45.966 44.9237 45.968 44.9223 45.9697C44.9058 45.9939 44.8888 46.0175 44.8714 46.0408C44.8646 46.0496 44.8575 46.0584 44.8507 46.0672C44.8382 46.0834 44.8254 46.0994 44.8123 46.115C44.8043 46.1247 44.7958 46.134 44.7876 46.1434C44.7748 46.1582 44.762 46.1727 44.7486 46.1869C44.7401 46.196 44.7313 46.2051 44.7228 46.2142C44.7088 46.2293 44.6949 46.2435 44.6804 46.2571Z" fill="#1F2A37"/>
<path d="M43.3947 43.6523C43.0698 43.6523 42.7711 43.7729 42.544 43.975C42.175 44.2899 42.0093 44.7953 42.1432 45.2842C42.3296 45.9644 43.0346 46.366 43.7148 46.1799C43.9024 46.1284 44.0689 46.0374 44.2076 45.9183C44.2079 45.9183 44.2079 45.9181 44.2082 45.9181C44.2128 45.9144 44.217 45.9104 44.2216 45.9067C44.4981 45.6719 44.6741 45.322 44.6741 44.9317C44.6738 44.2262 44.0999 43.6523 43.3947 43.6523Z" fill="#1F2A37"/>
<defs>
<linearGradient id="paint0_linear_15980_34992" x1="0.666504" y1="0" x2="57.855" y2="22.62" gradientUnits="userSpaceOnUse">
<stop stop-color="#EBE7F8"/>
<stop offset="0.5" stop-color="#E2F2FF"/>
<stop offset="1" stop-color="#DFF2EE"/>
</linearGradient>
</defs>
</svg>
