<svg width="24" height="24" viewBox="0 0 24 24" fill="none" xmlns="http://www.w3.org/2000/svg">
<g clip-path="url(#clip0_57_4227)">
<path d="M12 24C13.204 24.0049 14.3971 23.771 15.5102 23.3118C16.6232 22.8525 17.6341 22.1771 18.4844 21.3245C20.1806 19.6283 21.0377 17.4386 20.9632 14.9925C20.8954 12.766 20.0341 10.431 18.5381 8.41785L12.4515 0.227009C12.3991 0.156576 12.331 0.099364 12.2526 0.0599466C12.1742 0.0205293 12.0877 0 12 0C11.9122 0 11.8257 0.0205293 11.7473 0.0599466C11.6689 0.099364 11.6008 0.156576 11.5485 0.227009L5.46178 8.41785C3.96558 10.431 3.10453 12.7659 3.0367 14.9925C2.96217 17.4388 3.81952 19.6285 5.5155 21.3245C6.36577 22.1771 7.37669 22.8525 8.48974 23.3118C9.6028 23.771 10.7959 24.0049 12 24ZM6.36473 9.08906L12 1.50557L17.6352 9.08906C20.0741 12.3712 21.0366 17.1814 17.6889 20.5292C14.552 23.6661 9.44789 23.6661 6.31102 20.5292C2.9633 17.1812 3.92578 12.371 6.36473 9.08906ZM14.0822 20.6187C14.0195 20.4834 14.0131 20.3287 14.0644 20.1886C14.1157 20.0485 14.2206 19.9346 14.3559 19.8718C16.0012 19.1086 17.1081 17.6406 17.3161 15.9453C17.3249 15.8717 17.348 15.8006 17.3843 15.736C17.4205 15.6715 17.4692 15.6147 17.5275 15.5689C17.5857 15.5232 17.6525 15.4895 17.7238 15.4696C17.7952 15.4497 17.8697 15.4441 17.9433 15.4532C18.0168 15.4622 18.0878 15.4856 18.1522 15.5222C18.2166 15.5587 18.2732 15.6076 18.3187 15.6661C18.3642 15.7245 18.3977 15.7914 18.4172 15.8628C18.4368 15.9343 18.4421 16.0089 18.4327 16.0823C18.177 18.1664 16.8299 19.9644 14.8292 20.8923C14.7622 20.9235 14.6897 20.9411 14.6159 20.9442C14.5421 20.9473 14.4684 20.9358 14.399 20.9104C14.3296 20.885 14.2659 20.8461 14.2116 20.7961C14.1572 20.746 14.1133 20.6858 14.0822 20.6187Z" fill="#1F2A37"/>
</g>
<defs>
<clipPath id="clip0_57_4227">
<rect width="24" height="24" fill="white"/>
</clipPath>
</defs>
</svg>
