<svg width="24" height="25" viewBox="0 0 24 25" fill="none" xmlns="http://www.w3.org/2000/svg">
<path d="M19.1524 18.9418C18.1903 18.9418 17.33 19.587 17.0601 20.5108L17.0203 20.6472H5.54516C4.59805 20.6472 3.82737 19.8767 3.82737 18.9296C3.82737 17.9823 4.59805 17.2118 5.54516 17.2118H12.2858C13.7553 17.2118 14.9508 16.0163 14.9508 14.5468V12.9881L18.5795 10.883C19.105 10.5781 19.4756 10.0619 19.5965 9.46654L20.6056 4.4966C20.7331 3.86842 20.5736 3.22356 20.1681 2.72746C19.7625 2.23117 19.1622 1.94654 18.5213 1.94654H18.0319L17.9773 1.89519C17.8431 1.76955 17.6682 1.7002 17.4848 1.7002H16.3776C15.9806 1.7002 15.6575 2.02329 15.6575 2.42028C15.6575 2.81728 15.9806 3.14037 16.3776 3.14037H17.4848C17.6682 3.14037 17.8431 3.07121 17.9773 2.94538L18.0319 2.89403H18.5213C18.8768 2.89403 19.2096 3.05188 19.4345 3.32703C19.6595 3.60218 19.7478 3.95976 19.6771 4.30805L18.668 9.27799C18.6009 9.60809 18.3955 9.89442 18.1041 10.0635L14.4771 12.1678L10.8501 10.0635C10.5589 9.89442 10.3533 9.60809 10.2862 9.27799L9.2773 4.30805C9.20643 3.95976 9.29492 3.60218 9.51985 3.32703C9.74479 3.05188 10.0775 2.89403 10.4329 2.89403H10.9928L11.0476 2.94538C11.1816 3.07121 11.3565 3.14037 11.5399 3.14037H12.5768C12.9738 3.14037 13.2969 2.81728 13.2969 2.42028C13.2969 2.02329 12.9738 1.7002 12.5768 1.7002H11.5399C11.3565 1.7002 11.1816 1.76955 11.0476 1.89519L10.9928 1.94654H10.4329C9.79197 1.94654 9.19184 2.23117 8.78631 2.72746C8.3806 3.22356 8.22123 3.86842 8.34857 4.4966L9.35765 9.46654C9.47854 10.0619 9.8492 10.5781 10.3747 10.883L14.0034 12.9881V14.5468C14.0034 15.4939 13.2329 16.2644 12.2858 16.2644H5.54516C4.07542 16.2644 2.87988 17.4601 2.87988 18.9296C2.87988 20.3992 4.07542 21.5947 5.54516 21.5947H17.0203L17.0601 21.731C17.33 22.655 18.1903 23.3002 19.1524 23.3002C20.354 23.3002 21.3316 22.3226 21.3316 21.121C21.3316 19.9194 20.354 18.9418 19.1524 18.9418ZM20.0093 22.0044C20.0036 22.0099 19.9979 22.0154 19.9922 22.0207C19.9818 22.0306 19.9712 22.04 19.9604 22.0495C19.957 22.0525 19.9536 22.0558 19.9501 22.0588L19.9248 22.0808L19.9225 22.0823C19.7881 22.193 19.6348 22.2726 19.4662 22.3188C19.3599 22.348 19.2505 22.3628 19.141 22.3628C18.5877 22.3628 18.099 21.99 17.9528 21.4564C17.8304 21.0096 17.9716 20.5279 18.3127 20.2188C18.5276 20.0187 18.8134 19.8966 19.1255 19.8898C19.1346 19.8896 19.1435 19.8892 19.1526 19.8892C19.6195 19.8892 20.0265 20.1504 20.2353 20.5343C20.3303 20.7088 20.3843 20.9087 20.3843 21.121C20.3843 21.1432 20.3837 21.1651 20.3824 21.1869C20.3822 21.1915 20.3816 21.196 20.3814 21.2004C20.3803 21.2178 20.379 21.2352 20.3771 21.2525C20.3765 21.2574 20.3758 21.2623 20.3752 21.2675C20.3731 21.2843 20.371 21.301 20.3684 21.3177C20.3676 21.3226 20.3667 21.3275 20.3657 21.3323C20.3629 21.3489 20.3596 21.3654 20.356 21.3819C20.3549 21.3867 20.3538 21.3916 20.3526 21.3963C20.3488 21.4126 20.3449 21.4289 20.3405 21.445C20.3392 21.4499 20.3377 21.4547 20.3363 21.4596C20.3318 21.4755 20.3269 21.4914 20.3217 21.507C20.32 21.5119 20.3185 21.5168 20.3168 21.5218C20.3115 21.5371 20.3058 21.5525 20.3 21.5674C20.2981 21.5725 20.296 21.5777 20.2939 21.5826C20.2878 21.5974 20.2816 21.612 20.2749 21.6266C20.2727 21.6317 20.2704 21.6368 20.2679 21.6419C20.2611 21.6563 20.2541 21.6705 20.2467 21.6847C20.2441 21.6897 20.2418 21.6948 20.2391 21.6997C20.2312 21.7145 20.2228 21.7291 20.2143 21.7435C20.212 21.7475 20.2098 21.7514 20.2075 21.7554C20.1965 21.7736 20.1849 21.7916 20.1732 21.8092C20.1724 21.8104 20.1715 21.8117 20.1705 21.8128C20.1595 21.8289 20.1482 21.8447 20.1366 21.8602C20.1321 21.8661 20.1273 21.872 20.1228 21.8778C20.1144 21.8886 20.1059 21.8992 20.0972 21.9097C20.0919 21.9161 20.0862 21.9224 20.0807 21.9286C20.0722 21.9385 20.0637 21.9481 20.0547 21.9576C20.0491 21.9637 20.0432 21.9697 20.0375 21.9758C20.0282 21.9858 20.0189 21.9953 20.0093 22.0044Z" fill="#1F2A37"/>
<path d="M19.1521 20.2681C18.9355 20.2681 18.7364 20.3484 18.585 20.4831C18.339 20.6931 18.2285 21.03 18.3178 21.356C18.4421 21.8094 18.912 22.0772 19.3655 21.9531C19.4906 21.9188 19.6016 21.8581 19.6941 21.7787C19.6943 21.7787 19.6943 21.7785 19.6945 21.7785C19.6975 21.7761 19.7004 21.7734 19.7034 21.771C19.8878 21.6144 20.0051 21.3812 20.0051 21.121C20.0049 20.6507 19.6223 20.2681 19.1521 20.2681Z" fill="#1F2A37"/>
</svg>
