<svg width="48" height="48" viewBox="0 0 48 48" fill="none" xmlns="http://www.w3.org/2000/svg">
<rect width="48" height="48" rx="24" fill="white"/>
<g clip-path="url(#clip0_1_6238)">
<path d="M35.9117 25.3712L35.4846 19.1422C35.4569 18.7387 35.2734 18.3705 34.968 18.1054C34.6626 17.8403 34.2722 17.7105 33.8689 17.7399C33.0761 17.7977 32.4613 18.4656 32.4691 19.2604L32.5195 24.3384L30.3199 27.1556C29.9687 27.6053 29.3861 27.7859 28.8576 27.6505L31.2509 24.5425C31.671 23.9969 31.6012 23.2066 31.0921 22.7433C30.8202 22.4958 30.4687 22.3736 30.1019 22.3993C29.7352 22.4249 29.4039 22.5947 29.1691 22.8775L25.5535 27.2317C24.9572 27.9499 24.6339 28.8593 24.6429 29.7927L24.6991 35.5751C24.7013 35.8056 24.8886 35.9912 25.1191 35.9916L31.1393 35.9998C31.1395 35.9998 31.1397 35.9998 31.1399 35.9998C31.2577 35.9998 31.37 35.9504 31.4497 35.8636C31.5295 35.7767 31.5691 35.6604 31.5589 35.5428L31.3131 32.7124L35.3097 27.401C35.7477 26.8189 35.9615 26.098 35.9117 25.3712ZM34.6376 26.8953L30.5442 32.3355C30.4818 32.4184 30.4523 32.5214 30.4612 32.6247L30.6812 35.158L25.5362 35.151L25.4841 29.7846C25.4769 29.05 25.7315 28.3343 26.2007 27.7691L29.8163 23.4149C29.9029 23.3105 30.0252 23.2479 30.1604 23.2384C30.2957 23.2288 30.4256 23.274 30.5259 23.3654C30.7138 23.5364 30.7396 23.828 30.5845 24.0293L27.8686 27.5562C27.7973 27.6487 27.7678 27.7666 27.7869 27.8817C27.806 27.9969 27.8722 28.0989 27.9694 28.1634C28.9413 28.808 30.2651 28.5927 30.9829 27.6734L33.2731 24.7402C33.3317 24.6652 33.3631 24.5724 33.3622 24.4772L33.3103 19.2522C33.3068 18.9003 33.579 18.6046 33.93 18.5789C34.1094 18.566 34.2815 18.6234 34.4167 18.7407C34.5519 18.8581 34.6331 19.0211 34.6454 19.1998L35.0725 25.4288C35.1085 25.9539 34.9541 26.4747 34.6376 26.8953Z" fill="#374151"/>
<path d="M18.8309 22.8779C18.5961 22.5951 18.2648 22.4252 17.8981 22.3997C17.5316 22.3741 17.1798 22.4962 16.908 22.7436C16.3988 23.2071 16.329 23.9974 16.7491 24.5429L19.1424 27.6509C18.6143 27.7862 18.0313 27.6058 17.6801 27.1561L15.4804 24.3388L15.5309 19.2608C15.5387 18.466 14.9239 17.7981 14.1311 17.7404C13.7284 17.7112 13.3376 17.8407 13.032 18.1058C12.7266 18.3709 12.5431 18.7391 12.5154 19.1426L12.0883 25.3716C12.0384 26.0984 12.2522 26.8193 12.6902 27.4014L16.6868 32.7128L16.4411 35.5432C16.4308 35.6607 16.4705 35.7772 16.5503 35.8641C16.6299 35.9508 16.7423 36.0002 16.86 36.0002C16.8602 36.0002 16.8604 36.0002 16.8606 36.0002L22.8808 35.992C23.1113 35.9917 23.2986 35.806 23.3009 35.5755L23.3571 29.7931C23.3661 28.8598 23.0427 27.9504 22.4465 27.2322L18.8309 22.8779ZM22.4638 35.1514L17.3189 35.1584L17.5388 32.6251C17.5478 32.5218 17.5183 32.4187 17.4559 32.3359L13.3624 26.8957C13.0459 26.4751 12.8915 25.9542 12.9275 25.4292L13.3546 19.2002C13.3669 19.0215 13.4481 18.8585 13.5834 18.7411C13.706 18.6347 13.8596 18.5775 14.0203 18.5775C14.0368 18.5775 14.0534 18.5781 14.07 18.5793C14.421 18.6049 14.6932 18.9006 14.6897 19.2525L14.6378 24.4776C14.6369 24.5728 14.6683 24.6656 14.7269 24.7406L17.0171 27.6738C17.735 28.5931 19.0586 28.8082 20.0307 28.1638C20.1279 28.0993 20.194 27.9973 20.2131 27.8822C20.2323 27.767 20.2026 27.6491 20.1315 27.5566L17.4155 24.0297C17.2605 23.8284 17.2862 23.5368 17.4742 23.3658C17.5745 23.2744 17.7042 23.2295 17.8396 23.2388C17.9749 23.2482 18.0971 23.3109 18.1838 23.4153L21.7993 27.7696C22.2686 28.3348 22.5231 29.0505 22.5159 29.785L22.4638 35.1514Z" fill="#374151"/>
<path d="M32.2392 16.7327C32.2392 15.4686 31.7468 14.2801 30.853 13.3862C29.9591 12.4923 28.7706 12 27.5065 12C26.2424 12 25.0539 12.4923 24.1599 13.3861L24 13.5461L23.84 13.3861C22.9462 12.4923 21.7577 12 20.4935 12C19.2294 12 18.0409 12.4923 17.147 13.3861C15.3018 15.2314 15.3018 18.2338 17.147 20.0792L23.7026 26.6347C23.7847 26.7168 23.8924 26.7579 24 26.7579C24.1076 26.7579 24.2153 26.7168 24.2974 26.6347L30.853 20.0791C31.7468 19.1853 32.2392 17.9968 32.2392 16.7327ZM24.0001 25.7425L17.7419 19.4843C16.2246 17.967 16.2246 15.4982 17.7419 13.9809C18.4768 13.246 19.4541 12.8412 20.4935 12.8412C21.533 12.8412 22.5102 13.246 23.2452 13.981L23.7026 14.4383C23.7815 14.5172 23.8884 14.5616 24 14.5616C24.1116 14.5616 24.2185 14.5172 24.2974 14.4383L24.7548 13.981C25.4898 13.246 26.4671 12.8412 27.5065 12.8412C28.5459 12.8412 29.5232 13.246 30.2581 13.981C30.9931 14.716 31.398 15.6932 31.398 16.7327C31.398 17.7722 30.9931 18.7494 30.2581 19.4844L24.0001 25.7425Z" fill="#374151"/>
</g>
<defs>
<clipPath id="clip0_1_6238">
<rect width="24" height="24" fill="white" transform="translate(12 12)"/>
</clipPath>
</defs>
</svg>
