<svg width="64" height="64" viewBox="0 0 64 64" fill="none" xmlns="http://www.w3.org/2000/svg">
<rect width="64" height="64" rx="32" fill="url(#paint0_linear_15980_34982)"/>
<path d="M49.1916 15.775L48.4353 14.9163C47.9172 14.3295 47.2152 14 46.4834 14C45.7516 14 45.0497 14.3295 44.5315 14.9163L43.1962 16.4326C43.1912 16.4382 43.1877 16.4452 43.1827 16.4509L40.2376 19.7951C40.188 19.7951 40.1394 19.7855 40.0898 19.7855H18.5857C17.3699 19.7871 16.2043 20.3363 15.3446 21.3126C14.4849 22.2888 14.0013 23.6124 14 24.993V39.928C14.0022 41.1933 14.4097 42.4145 15.1465 43.3638C15.8833 44.3131 16.8991 44.9256 18.0043 45.087V48.2414C18.0041 48.5895 18.0949 48.9297 18.2651 49.2191C18.4354 49.5085 18.6775 49.7339 18.9608 49.8668C19.2441 49.9997 19.5557 50.0341 19.8562 49.9657C20.1567 49.8972 20.4326 49.7289 20.6487 49.4822L23.575 46.1595C23.8616 45.8322 24.2026 45.5727 24.5781 45.3961C24.9536 45.2194 25.3563 45.1291 25.7627 45.1303H40.0898C41.3046 45.1288 42.4692 44.5801 43.3282 43.6048C44.1872 42.6294 44.6703 41.3069 44.6717 39.9275V25.3406L47.8543 21.7267H47.8566L49.1916 20.2104C49.7092 19.6221 50 18.8244 50 17.9927C50 17.161 49.7092 16.3634 49.1916 15.775ZM43.324 39.928C43.3232 40.9017 42.9822 41.8353 42.3759 42.5238C41.7695 43.2123 40.9473 43.5996 40.0898 43.6005H25.7627C25.1791 43.5989 24.601 43.7288 24.0619 43.9827C23.5228 44.2366 23.0334 44.6094 22.622 45.0796L19.6958 48.4023C19.6685 48.4361 19.6326 48.4593 19.5931 48.4687C19.5535 48.478 19.5124 48.473 19.4755 48.4543C19.4379 48.4388 19.4055 48.4099 19.3833 48.372C19.3611 48.3341 19.3501 48.2891 19.3519 48.2436V44.3656C19.3519 44.1627 19.281 43.9681 19.1546 43.8246C19.0282 43.6811 18.8568 43.6005 18.6781 43.6005H18.5857C17.7277 43.6001 16.9048 43.2133 16.2977 42.5247C15.6906 41.8362 15.3489 40.9023 15.3476 39.928V24.993C15.3484 24.0181 15.6898 23.0834 16.2969 22.3939C16.904 21.7045 17.7271 21.3167 18.5857 21.3157H38.8985L33.3067 27.6652C33.2068 27.7785 33.1406 27.9246 33.1176 28.0828L32.3938 33.1154C32.3781 33.2249 32.3837 33.3369 32.4099 33.4437C32.4362 33.5505 32.4825 33.6496 32.5458 33.7341C32.609 33.8186 32.6877 33.8864 32.7763 33.933C32.865 33.9796 32.9614 34.0037 33.0591 34.0038C33.0954 34.0037 33.1317 34.0005 33.1677 33.9942L37.5955 33.1723C37.7348 33.1462 37.8634 33.0713 37.9632 32.958L43.324 26.8708V39.928ZM37.1635 31.7015L33.8746 32.3136L34.4136 28.5746L40.8945 21.2143L40.9788 21.1185L43.674 18.0581L43.731 18.1228L46.4263 21.1859L37.1635 31.7015ZM48.2386 19.1266L47.3796 20.1016L44.9335 17.3231L44.6255 16.9734L45.4841 15.9988C45.7535 15.7074 46.1113 15.5449 46.4834 15.5449C46.8555 15.5449 47.2134 15.7074 47.4828 15.9988L48.239 16.8575C48.5032 17.1589 48.6516 17.5668 48.6516 17.9921C48.6516 18.4173 48.5028 18.8253 48.2386 19.1266Z" fill="#1F2A37"/>
<path d="M19.7832 29.1396H29.3358C29.5145 29.1396 29.6859 29.059 29.8123 28.9155C29.9386 28.772 30.0096 28.5774 30.0096 28.3745C30.0096 28.1716 29.9386 27.977 29.8123 27.8335C29.6859 27.69 29.5145 27.6094 29.3358 27.6094H19.7832C19.6045 27.6094 19.4331 27.69 19.3067 27.8335C19.1804 27.977 19.1094 28.1716 19.1094 28.3745C19.1094 28.5774 19.1804 28.772 19.3067 28.9155C19.4331 29.059 19.6045 29.1396 19.7832 29.1396Z" fill="#1F2A37"/>
<path d="M19.7832 37.3379C19.6045 37.3379 19.4331 37.4185 19.3067 37.562C19.1804 37.7055 19.1094 37.9001 19.1094 38.103C19.1094 38.3059 19.1804 38.5005 19.3067 38.644C19.4331 38.7875 19.6045 38.8681 19.7832 38.8681H37.9417C38.1204 38.8681 38.2918 38.7875 38.4181 38.644C38.5445 38.5005 38.6155 38.3059 38.6155 38.103C38.6155 37.9001 38.5445 37.7055 38.4181 37.562C38.2918 37.4185 38.1204 37.3379 37.9417 37.3379H19.7832Z" fill="#1F2A37"/>
<path d="M19.7832 34.0029H29.3358C29.5145 34.0029 29.6859 33.9223 29.8123 33.7788C29.9386 33.6353 30.0096 33.4407 30.0096 33.2378C30.0096 33.0348 29.9386 32.8402 29.8123 32.6968C29.6859 32.5533 29.5145 32.4727 29.3358 32.4727H19.7832C19.6045 32.4727 19.4331 32.5533 19.3067 32.6968C19.1804 32.8402 19.1094 33.0348 19.1094 33.2378C19.1094 33.4407 19.1804 33.6353 19.3067 33.7788C19.4331 33.9223 19.6045 34.0029 19.7832 34.0029Z" fill="#1F2A37"/>
<defs>
<linearGradient id="paint0_linear_15980_34982" x1="0" y1="0" x2="57.1885" y2="22.62" gradientUnits="userSpaceOnUse">
<stop stop-color="#EBE7F8"/>
<stop offset="0.5" stop-color="#E2F2FF"/>
<stop offset="1" stop-color="#DFF2EE"/>
</linearGradient>
</defs>
</svg>
