<svg width="60" height="60" viewBox="0 0 60 60" fill="none" xmlns="http://www.w3.org/2000/svg">
<rect width="60" height="60" rx="30" fill="url(#paint0_linear_23121_21388)"/>
<g clip-path="url(#clip0_23121_21388)">
<path d="M46.6008 27.4146L44.4661 29.293C44.32 26.4096 43.3269 23.6332 41.611 21.3114C39.6584 18.6584 36.8568 16.7534 33.6718 15.9128C30.361 15.0259 26.8436 15.3332 23.7367 16.7807C20.6298 18.2282 18.1317 20.7235 16.6809 23.8288C16.6325 23.9295 16.6046 24.0387 16.5988 24.1502C16.593 24.2617 16.6094 24.3733 16.647 24.4784C16.6846 24.5835 16.7427 24.6802 16.8179 24.7627C16.8931 24.8452 16.984 24.9119 17.0852 24.9591C17.1864 25.0062 17.296 25.0328 17.4076 25.0373C17.5191 25.0417 17.6305 25.024 17.7351 24.9852C17.8398 24.9463 17.9357 24.887 18.0173 24.8108C18.0989 24.7346 18.1646 24.643 18.2105 24.5412C19.4063 21.9832 21.4084 19.8882 23.9095 18.5775C26.4106 17.2669 29.2727 16.8131 32.0566 17.2856C34.8405 17.7581 37.3925 19.131 39.321 21.1935C41.2496 23.2561 42.4482 25.8944 42.733 28.7037L41.3473 26.9107C41.2795 26.823 41.1951 26.7496 41.099 26.6945C41.0028 26.6394 40.8968 26.6038 40.7869 26.5898C40.677 26.5757 40.5654 26.5834 40.4584 26.6124C40.3515 26.6415 40.2514 26.6913 40.1637 26.759C40.076 26.8268 40.0025 26.9112 39.9475 27.0073C39.8924 27.1035 39.8568 27.2095 39.8427 27.3194C39.8286 27.4293 39.8363 27.5409 39.8654 27.6479C39.8944 27.7548 39.9443 27.8549 40.012 27.9426L42.9201 31.7057C42.9906 31.797 43.0791 31.8728 43.18 31.9285C43.281 31.9842 43.3923 32.0187 43.5071 32.0297C43.534 32.0322 43.5609 32.0335 43.5877 32.0335C43.7929 32.0335 43.991 31.9587 44.1451 31.8232L47.7154 28.6815C47.7988 28.6083 47.867 28.5195 47.9161 28.42C47.9651 28.3205 47.9941 28.2122 48.0013 28.1015C48.0085 27.9908 47.9937 27.8798 47.958 27.7748C47.9222 27.6697 47.866 27.5728 47.7927 27.4895C47.7195 27.4062 47.6305 27.3382 47.5309 27.2893C47.4312 27.2405 47.323 27.2118 47.2122 27.2048C47.1015 27.1978 46.9905 27.2128 46.8856 27.2488C46.7806 27.2848 46.6838 27.3411 46.6007 27.4146H46.6008Z" fill="#1F2A37"/>
<path d="M42.7014 35.0504C42.6009 35.0036 42.4922 34.9771 42.3815 34.9723C42.2708 34.9675 42.1603 34.9846 42.0562 35.0226C41.9521 35.0606 41.8565 35.1186 41.7748 35.1936C41.6932 35.2685 41.6271 35.3587 41.5803 35.4592C40.3746 38.038 38.3498 40.1457 35.8214 41.4538C33.293 42.7619 30.4029 43.197 27.6014 42.6914C24.7999 42.1857 22.2443 40.7676 20.3328 38.6581C18.4212 36.5486 17.261 33.8661 17.033 31.0284L18.7143 32.9366C18.7876 33.0197 18.8765 33.0876 18.976 33.1364C19.0755 33.1851 19.1836 33.2138 19.2942 33.2208C19.4048 33.2278 19.5156 33.213 19.6205 33.1771C19.7253 33.1412 19.8221 33.0851 19.9052 33.0118C19.9883 32.9386 20.0562 32.8496 20.105 32.7502C20.1538 32.6507 20.1825 32.5425 20.1895 32.432C20.1965 32.3214 20.1816 32.2105 20.1457 32.1056C20.1099 32.0008 20.0537 31.9041 19.9804 31.8209L16.8361 28.2527C16.7599 28.1662 16.6667 28.0962 16.5624 28.0471C16.458 27.998 16.3447 27.9708 16.2294 27.9672C16.1142 27.9636 15.9994 27.9837 15.8922 28.0262C15.7849 28.0687 15.6876 28.1327 15.6061 28.2143L12.2452 31.5793C12.0877 31.7378 11.9996 31.9523 12 32.1757C12.0004 32.3991 12.0895 32.6131 12.2475 32.771C12.4056 32.9289 12.6198 33.0176 12.8432 33.0177C13.0666 33.0179 13.2809 32.9294 13.4392 32.7718L15.334 30.8746C15.5291 34.1127 16.7981 37.1933 18.9402 39.6294C21.0823 42.0655 23.9753 43.718 27.1618 44.3257C30.3484 44.9334 33.6465 44.4615 36.5348 42.9848C39.4232 41.508 41.7368 39.1105 43.1099 36.1715C43.2044 35.9687 43.2144 35.7366 43.1378 35.5263C43.0612 35.3161 42.9042 35.1449 42.7014 35.0504Z" fill="#1F2A37"/>
</g>
<defs>
<linearGradient id="paint0_linear_23121_21388" x1="0" y1="0" x2="53.6142" y2="21.2063" gradientUnits="userSpaceOnUse">
<stop stop-color="#EBE7F8"/>
<stop offset="0.5" stop-color="#E2F2FF"/>
<stop offset="1" stop-color="#DFF2EE"/>
</linearGradient>
<clipPath id="clip0_23121_21388">
<rect width="36" height="36" fill="white" transform="translate(12 12)"/>
</clipPath>
</defs>
</svg>
