<svg width="65" height="64" viewBox="0 0 65 64" fill="none" xmlns="http://www.w3.org/2000/svg">
<rect x="0.333496" width="64" height="64" rx="32" fill="url(#paint0_linear_15980_35001)"/>
<g clip-path="url(#clip0_15980_35001)">
<path d="M48.9084 21.9433L32.563 14.0524C32.4181 13.9825 32.2493 13.9825 32.1045 14.0524L15.759 21.9433C15.5767 22.0313 15.4609 22.2158 15.4609 22.4182V41.5818C15.4609 41.7842 15.5767 41.9687 15.759 42.0567L32.1044 49.9476C32.1768 49.9825 32.2553 50 32.3337 50C32.4121 50 32.4905 49.9825 32.563 49.9476L48.9084 42.0567C49.0906 41.9687 49.2064 41.7842 49.2064 41.5818V22.4183C49.2064 22.2158 49.0906 22.0313 48.9084 21.9433ZM32.3337 15.1129L47.4661 22.4182L43.0795 24.5359C43.0518 24.5147 43.0225 24.4952 42.9902 24.4796L27.9606 17.2241L32.3337 15.1129ZM26.7696 17.8203L41.8801 25.115L38.7853 26.609L23.6811 19.3173L26.7696 17.8203ZM42.2336 26.1154V31.6381L39.3429 33.0337V27.5109L42.2336 26.1154ZM48.1517 41.2509L32.861 48.6325V30.64L36.5084 28.8793C36.7706 28.7527 36.8806 28.4374 36.754 28.1751C36.6273 27.9129 36.3121 27.8028 36.0498 27.9295L32.3337 29.7235L30.8715 29.0176C30.6091 28.8908 30.2939 29.0009 30.1673 29.2632C30.0407 29.5255 30.1506 29.8407 30.4129 29.9674L31.8063 30.64V48.6325L16.5156 41.2508V23.2584L28.1594 28.8795C28.2333 28.9152 28.3114 28.9321 28.3882 28.9321C28.5843 28.9321 28.7726 28.8223 28.8635 28.6339C28.9901 28.3716 28.8801 28.0563 28.6179 27.9297L17.2012 22.4182L22.4399 19.8892L38.2809 27.5366C38.2832 27.5398 38.2858 27.5427 38.2882 27.5459V33.8739C38.2882 34.0554 38.3815 34.2241 38.5352 34.3206C38.6205 34.3742 38.7179 34.4013 38.8156 34.4013C38.8938 34.4013 38.9722 34.3839 39.0448 34.3488L42.9902 32.4441C43.1725 32.3562 43.2883 32.1717 43.2883 31.9692V25.6063L48.1517 23.2584V41.2509Z" fill="#1F2A37"/>
<path d="M20.8674 39.2048L18.4687 38.0468C18.2063 37.92 17.8911 38.0301 17.7645 38.2924C17.6379 38.5546 17.7478 38.8699 18.0101 38.9966L20.4088 40.1545C20.4827 40.1903 20.5608 40.2071 20.6377 40.2071C20.8337 40.2071 21.022 40.0973 21.1129 39.9089C21.2396 39.6466 21.1296 39.3315 20.8674 39.2048Z" fill="#1F2A37"/>
<path d="M23.0751 37.7689L18.472 35.5467C18.2097 35.4201 17.8945 35.5301 17.7679 35.7924C17.6413 36.0547 17.7513 36.3699 18.0135 36.4966L22.6165 38.7187C22.6904 38.7544 22.7686 38.7713 22.8454 38.7713C23.0414 38.7713 23.2297 38.6615 23.3207 38.4731C23.4473 38.2107 23.3373 37.8954 23.0751 37.7689Z" fill="#1F2A37"/>
</g>
<defs>
<linearGradient id="paint0_linear_15980_35001" x1="0.333496" y1="0" x2="57.522" y2="22.62" gradientUnits="userSpaceOnUse">
<stop stop-color="#EBE7F8"/>
<stop offset="0.5" stop-color="#E2F2FF"/>
<stop offset="1" stop-color="#DFF2EE"/>
</linearGradient>
<clipPath id="clip0_15980_35001">
<rect width="36" height="36" fill="white" transform="translate(14.3335 14)"/>
</clipPath>
</defs>
</svg>
