<svg width="48" height="49" viewBox="0 0 48 49" fill="none" xmlns="http://www.w3.org/2000/svg">
<rect y="0.5" width="48" height="48" rx="24" fill="white"/>
<g clip-path="url(#clip0_1_6232)">
<path d="M35.9287 25.9379C35.8692 25.8188 35.7204 25.7593 35.6013 25.7296C34.9168 25.7296 29.0239 25.4915 29.0239 18.6462C29.0239 18.4378 28.8453 18.2593 28.637 18.2593C28.4287 18.2593 28.2501 18.4378 28.2501 18.6462C28.2501 25.4915 22.3572 25.7296 21.7024 25.7296C21.6132 25.7296 21.5239 25.7593 21.4644 25.8188C21.4048 25.8486 21.3751 25.9081 21.3453 25.9379C21.2858 26.0569 21.2858 26.2058 21.3453 26.3248C21.4048 26.4439 21.5536 26.5331 21.7024 26.5331C21.7024 26.5331 21.7024 26.5331 21.7322 26.5331C22.4167 26.5331 28.2799 26.7712 28.2799 33.6165C28.2799 33.8248 28.4584 34.0034 28.6668 34.0034C28.8751 34.0034 29.0537 33.8248 29.0537 33.6165C29.0537 26.801 34.9168 26.5331 35.6013 26.5331C35.7502 26.5331 35.8692 26.4439 35.9585 26.3248C36.018 26.2058 36.018 26.0569 35.9287 25.9379ZM28.637 30.6998C27.7739 27.8724 25.6608 26.6522 23.9941 26.1165C25.6608 25.5808 27.7739 24.3605 28.637 21.5331C29.5001 24.3605 31.6132 25.5808 33.2799 26.1165C31.6132 26.6522 29.5001 27.8724 28.637 30.6998Z" fill="#374151"/>
<path d="M23.7263 18.1997C23.9346 18.1997 24.1132 18.0211 24.1132 17.783C24.1132 17.5747 23.9346 17.3961 23.7263 17.3961C23.3691 17.3961 20.1548 17.2771 20.1548 13.527C20.1548 13.3187 19.9762 13.1401 19.7679 13.1401C19.5596 13.1401 19.381 13.3187 19.381 13.527C19.381 17.2771 16.1667 17.3961 15.8095 17.3961C15.7798 17.3961 15.7798 17.3961 15.7798 17.3961C15.5714 17.4259 15.4226 17.5747 15.4226 17.783C15.4226 17.9914 15.6012 18.1699 15.8095 18.1699C16.1965 18.1699 19.381 18.289 19.381 22.039C19.381 22.2473 19.5596 22.4259 19.7679 22.4259C19.9465 22.4557 20.125 22.2771 20.125 22.0688C20.125 18.3187 23.3394 18.1997 23.6965 18.1997H23.7263ZM19.7381 19.8961C19.2619 18.7652 18.3988 18.1402 17.5953 17.783C18.4584 17.4259 19.2619 16.7413 19.7381 15.6699C20.2143 16.8009 21.0774 17.4259 21.881 17.783C21.0179 18.1402 20.2143 18.8247 19.7381 19.8961Z" fill="#374151"/>
<path d="M20.3036 30.819C19.9465 30.819 16.7322 30.6999 16.7322 26.9499C16.7322 26.7416 16.5536 26.563 16.3453 26.563C16.1369 26.563 15.9584 26.7416 15.9584 26.9499C15.9584 30.6999 12.7441 30.819 12.3869 30.819C12.3571 30.819 12.3571 30.819 12.3571 30.819C12.1488 30.8487 12 30.9975 12 31.2059C12 31.4142 12.1786 31.5928 12.3869 31.5928C12.7738 31.5928 15.9584 31.7118 15.9584 35.4619C15.9584 35.6702 16.1369 35.8488 16.3453 35.8488C16.5238 35.9083 16.7024 35.7297 16.7024 35.4916C16.7024 31.7416 19.9167 31.6225 20.2739 31.6225H20.3036C20.512 31.6225 20.6905 31.444 20.6905 31.2059C20.6905 30.9975 20.512 30.819 20.3036 30.819ZM16.3155 33.3487C15.8095 32.2178 14.9762 31.5928 14.1726 31.2356C15.0357 30.8785 15.8393 30.194 16.3155 29.1225C16.7917 30.2535 17.6548 30.8785 18.4584 31.2356C17.5953 31.5928 16.7917 32.2773 16.3155 33.3487Z" fill="#374151"/>
</g>
<defs>
<clipPath id="clip0_1_6232">
<rect width="24" height="24" fill="white" transform="translate(12 12.5)"/>
</clipPath>
</defs>
</svg>
