<svg width="24" height="25" viewBox="0 0 24 25" fill="none" xmlns="http://www.w3.org/2000/svg">
<path d="M17.2273 2.39072H16.9527V2.30336C16.9527 1.97077 16.6838 1.7002 16.3531 1.7002H7.64652C7.31618 1.7002 7.04719 1.97077 7.04719 2.30336V2.39072H6.77258C6.29882 2.39072 5.91357 2.77895 5.91357 3.25616V5.79109C5.91357 6.23168 6.24314 6.59231 6.66641 6.64568V7.88043V9.314V17.9941V19.419V22.4695C6.66641 22.9275 7.0361 23.3002 7.49085 23.3002H16.4485C16.9032 23.3002 17.273 22.9275 17.273 22.4695V6.65188C17.7252 6.62744 18.0863 6.25256 18.0863 5.79109V3.25616C18.0863 2.77895 17.7011 2.39072 17.2273 2.39072ZM7.48433 2.30336C7.48433 2.21485 7.56007 2.13733 7.64652 2.13733H16.3531C16.4396 2.13733 16.5156 2.21485 16.5156 2.30336V2.39072H7.48433V2.30336ZM7.10354 9.53259H11.6517V17.7756H7.10354V9.53259ZM7.10354 18.2126H11.8703C11.991 18.2126 12.0888 18.1148 12.0888 17.9941V9.31405C12.0888 9.19328 11.991 9.09551 11.8703 9.09551H7.10354V8.09907H13.2006V19.2005H7.10354V18.2126ZM16.8358 22.4695C16.8358 22.6866 16.662 22.8631 16.4485 22.8631H7.4909C7.27385 22.8631 7.10359 22.6902 7.10359 22.4695V19.6376H13.4192C13.54 19.6376 13.6378 19.5398 13.6378 19.4191V7.88048C13.6378 7.75971 13.54 7.66194 13.4192 7.66194H7.10354V6.65653H16.8358V22.4695ZM17.6492 5.79109C17.6492 6.02725 17.4599 6.21944 17.2274 6.21944H17.0544H6.885H6.77263C6.54002 6.21944 6.35071 6.02725 6.35071 5.79109V3.25616C6.35071 3.02404 6.54391 2.82781 6.77263 2.82781H7.26578H16.7342H17.2273C17.456 2.82781 17.6492 3.02404 17.6492 3.25616V5.79109H17.6492Z" fill="#1F2A37" stroke="#1F2A37" stroke-width="0.3"/>
<path d="M8.62431 3.5708C8.50354 3.5708 8.40576 3.66858 8.40576 3.78934V5.26659C8.40576 5.38731 8.50354 5.48514 8.62431 5.48514C8.74507 5.48514 8.84285 5.38736 8.84285 5.26659V3.78934C8.84285 3.66858 8.74507 3.5708 8.62431 3.5708Z" fill="#1F2A37"/>
<path d="M9.81913 3.5708C9.69836 3.5708 9.60059 3.66858 9.60059 3.78934V5.26659C9.60059 5.38731 9.69836 5.48514 9.81913 5.48514C9.93985 5.48514 10.0377 5.38736 10.0377 5.26659V3.78934C10.0377 3.66858 9.9399 3.5708 9.81913 3.5708Z" fill="#1F2A37"/>
<path d="M11.0135 3.5708C10.8927 3.5708 10.7949 3.66858 10.7949 3.78934V5.26659C10.7949 5.38731 10.8927 5.48514 11.0135 5.48514C11.1342 5.48514 11.2321 5.38736 11.2321 5.26659V3.78934C11.2321 3.66858 11.1342 3.5708 11.0135 3.5708Z" fill="#1F2A37"/>
<path d="M12.2078 3.5708C12.087 3.5708 11.9893 3.66858 11.9893 3.78934V5.26659C11.9893 5.38731 12.087 5.48514 12.2078 5.48514C12.3286 5.48514 12.4263 5.38736 12.4263 5.26659V3.78934C12.4264 3.66858 12.3286 3.5708 12.2078 3.5708Z" fill="#1F2A37"/>
<path d="M13.3933 3.5708C13.2726 3.5708 13.1748 3.66858 13.1748 3.78934V5.26659C13.1748 5.38731 13.2726 5.48514 13.3933 5.48514C13.5141 5.48514 13.6119 5.38736 13.6119 5.26659V3.78934C13.6119 3.66858 13.5141 3.5708 13.3933 3.5708Z" fill="#1F2A37"/>
<path d="M14.5877 3.5708C14.467 3.5708 14.3691 3.66858 14.3691 3.78934V5.26659C14.3691 5.38731 14.467 5.48514 14.5877 5.48514C14.7085 5.48514 14.8062 5.38736 14.8062 5.26659V3.78934C14.8062 3.66858 14.7085 3.5708 14.5877 3.5708Z" fill="#1F2A37"/>
<path d="M15.782 3.5708C15.6613 3.5708 15.5635 3.66858 15.5635 3.78934V5.26659C15.5635 5.38731 15.6613 5.48514 15.782 5.48514C15.9027 5.48514 16.0006 5.38736 16.0006 5.26659V3.78934C16.0006 3.66858 15.9028 3.5708 15.782 3.5708Z" fill="#1F2A37"/>
<path d="M16.9676 3.5708C16.8468 3.5708 16.749 3.66858 16.749 3.78934V5.26659C16.749 5.38731 16.8468 5.48514 16.9676 5.48514C17.0883 5.48514 17.1861 5.38736 17.1861 5.26659V3.78934C17.1861 3.66858 17.0883 3.5708 16.9676 3.5708Z" fill="#1F2A37"/>
<path d="M7.43925 3.5708C7.31853 3.5708 7.2207 3.66858 7.2207 3.78934V5.26659C7.2207 5.38731 7.31853 5.48514 7.43925 5.48514C7.55997 5.48514 7.65779 5.38736 7.65779 5.26659V3.78934C7.65779 3.66858 7.55997 3.5708 7.43925 3.5708Z" fill="#1F2A37"/>
</svg>
