<svg width="45" height="44" viewBox="0 0 45 44" fill="none" xmlns="http://www.w3.org/2000/svg">
<rect x="1.25" y="0.75" width="42.5" height="42.5" rx="15.25" stroke="#655CD2" stroke-width="1.5"/>
<path d="M28.5986 10.2056H28.2782V10.1037C28.2782 9.71567 27.9644 9.4 27.5786 9.4H17.421C17.0356 9.4 16.7218 9.71567 16.7218 10.1037V10.2056H16.4014C15.8487 10.2056 15.3992 10.6585 15.3992 11.2153V14.1727C15.3992 14.6867 15.7837 15.1075 16.2775 15.1697V16.6103V18.2828V28.4095V30.072V33.6309C16.2775 34.1652 16.7088 34.6 17.2394 34.6H27.69C28.2205 34.6 28.6518 34.1652 28.6518 33.6309V15.177C29.1794 15.1485 29.6007 14.7111 29.6007 14.1727V11.2153C29.6007 10.6585 29.1513 10.2056 28.5986 10.2056ZM17.2317 10.1037C17.2317 10.0004 17.3201 9.90999 17.421 9.90999H27.5786C27.6796 9.90999 27.7683 10.0004 27.7683 10.1037V10.2056H17.2317V10.1037ZM16.7875 18.5378H22.0937V28.1546H16.7875V18.5378ZM16.7875 28.6645H22.3487C22.4895 28.6645 22.6037 28.5504 22.6037 28.4095V18.2828C22.6037 18.1419 22.4895 18.0279 22.3487 18.0279H16.7875V16.8654H23.9008V29.817H16.7875V28.6645ZM28.1418 33.6309C28.1418 33.8841 27.939 34.09 27.69 34.09H17.2394C16.9862 34.09 16.7876 33.8883 16.7876 33.6309V30.327H24.1558C24.2967 30.327 24.4108 30.2128 24.4108 30.072V16.6103C24.4108 16.4694 24.2967 16.3554 24.1558 16.3554H16.7875V15.1824H28.1418V33.6309ZM29.0908 14.1727C29.0908 14.4482 28.8699 14.6725 28.5986 14.6725H28.3968H16.5325H16.4014C16.1301 14.6725 15.9092 14.4482 15.9092 14.1727V11.2153C15.9092 10.9445 16.1346 10.7156 16.4014 10.7156H16.9768H28.0232H28.5986C28.8654 10.7156 29.0908 10.9445 29.0908 11.2153V14.1727H29.0908Z" fill="#655CD2" stroke="#655CD2" stroke-width="0.5"/>
<path d="M18.5619 11.5824C18.421 11.5824 18.3069 11.6965 18.3069 11.8374V13.5609C18.3069 13.7017 18.421 13.8158 18.5619 13.8158C18.7028 13.8158 18.8169 13.7018 18.8169 13.5609V11.8374C18.8169 11.6965 18.7028 11.5824 18.5619 11.5824Z" fill="#655CD2" stroke="#655CD2" stroke-width="0.5"/>
<path d="M19.9554 11.5824C19.8145 11.5824 19.7004 11.6965 19.7004 11.8374V13.5609C19.7004 13.7017 19.8145 13.8158 19.9554 13.8158C20.0963 13.8158 20.2104 13.7018 20.2104 13.5609V11.8374C20.2104 11.6965 20.0963 11.5824 19.9554 11.5824Z" fill="#655CD2" stroke="#655CD2" stroke-width="0.5"/>
<path d="M21.349 11.5824C21.2081 11.5824 21.094 11.6965 21.094 11.8374V13.5609C21.094 13.7017 21.2081 13.8158 21.349 13.8158C21.4898 13.8158 21.6039 13.7018 21.6039 13.5609V11.8374C21.6039 11.6965 21.4898 11.5824 21.349 11.5824Z" fill="#655CD2" stroke="#655CD2" stroke-width="0.5"/>
<path d="M22.7424 11.5824C22.6015 11.5824 22.4875 11.6965 22.4875 11.8374V13.5609C22.4875 13.7017 22.6015 13.8158 22.7424 13.8158C22.8833 13.8158 22.9974 13.7018 22.9974 13.5609V11.8374C22.9974 11.6965 22.8833 11.5824 22.7424 11.5824Z" fill="#655CD2" stroke="#655CD2" stroke-width="0.5"/>
<path d="M24.1255 11.5824C23.9847 11.5824 23.8705 11.6965 23.8705 11.8374V13.5609C23.8705 13.7017 23.9846 13.8158 24.1255 13.8158C24.2664 13.8158 24.3805 13.7018 24.3805 13.5609V11.8374C24.3805 11.6965 24.2664 11.5824 24.1255 11.5824Z" fill="#655CD2" stroke="#655CD2" stroke-width="0.5"/>
<path d="M25.519 11.5824C25.3782 11.5824 25.264 11.6965 25.264 11.8374V13.5609C25.264 13.7017 25.3782 13.8158 25.519 13.8158C25.6599 13.8158 25.774 13.7018 25.774 13.5609V11.8374C25.774 11.6965 25.6599 11.5824 25.519 11.5824Z" fill="#655CD2" stroke="#655CD2" stroke-width="0.5"/>
<path d="M26.9125 11.5824C26.7716 11.5824 26.6576 11.6965 26.6576 11.8374V13.5609C26.6576 13.7017 26.7716 13.8158 26.9125 13.8158C27.0534 13.8158 27.1675 13.7018 27.1675 13.5609V11.8374C27.1675 11.6965 27.0534 11.5824 26.9125 11.5824Z" fill="#655CD2" stroke="#655CD2" stroke-width="0.5"/>
<path d="M28.2956 11.5824C28.1548 11.5824 28.0406 11.6965 28.0406 11.8374V13.5609C28.0406 13.7017 28.1548 13.8158 28.2956 13.8158C28.4365 13.8158 28.5506 13.7018 28.5506 13.5609V11.8374C28.5506 11.6965 28.4365 11.5824 28.2956 11.5824Z" fill="#655CD2" stroke="#655CD2" stroke-width="0.5"/>
<path d="M17.1789 11.5824C17.038 11.5824 16.9239 11.6965 16.9239 11.8374V13.5609C16.9239 13.7017 17.038 13.8158 17.1789 13.8158C17.3197 13.8158 17.4338 13.7018 17.4338 13.5609V11.8374C17.4338 11.6965 17.3197 11.5824 17.1789 11.5824Z" fill="#655CD2" stroke="#655CD2" stroke-width="0.5"/>
<path d="M27.3568 19.3024C27.4976 19.3024 27.6117 19.1883 27.6117 19.0474V16.396C27.6117 16.2552 27.4976 16.1411 27.3568 16.1411C27.2159 16.1411 27.1018 16.2552 27.1018 16.396V19.0474C27.1017 19.1883 27.2159 19.3024 27.3568 19.3024Z" fill="#655CD2" stroke="#655CD2" stroke-width="0.5"/>
<path d="M27.3568 32.6725C27.4976 32.6725 27.6117 32.5584 27.6117 32.4176V20.7915C27.6117 20.6507 27.4976 20.5366 27.3568 20.5366C27.2159 20.5366 27.1018 20.6507 27.1018 20.7915V32.4175C27.1017 32.5584 27.2159 32.6725 27.3568 32.6725Z" fill="#655CD2" stroke="#655CD2" stroke-width="0.5"/>
</svg>
