<svg width="32" height="32" viewBox="0 0 32 32" fill="none" xmlns="http://www.w3.org/2000/svg">
<g clip-path="url(#clip0_19925_99654)">
<path d="M19.5797 6.51149C17.0452 5.55537 14.2902 5.64337 11.8218 6.7593C9.35337 7.8753 7.46744 9.88586 6.51125 12.4204C5.55507 14.9547 5.64313 17.7098 6.75925 20.178C7.87531 22.6461 9.88581 24.532 12.4202 25.4882C13.5954 25.9316 14.8017 26.1415 15.9892 26.1415C20.0889 26.1415 23.9581 23.6365 25.4887 19.5799C27.4623 14.348 24.8116 8.48548 19.5797 6.51149ZM24.3112 19.1357C22.5821 23.7183 17.447 26.0398 12.8644 24.3108C10.6446 23.4733 8.88356 21.8215 7.90594 19.6596C6.92831 17.4977 6.85113 15.0846 7.68869 12.8647C8.52618 10.6447 10.1781 8.88361 12.3402 7.90605C13.5088 7.37767 14.7507 7.11236 15.9959 7.11236C17.0544 7.11236 18.1153 7.30411 19.1354 7.68892C23.7181 9.41798 26.04 14.553 24.3112 19.1357Z" fill="#8478DA"/>
<path d="M22.1344 11.362C21.9251 11.0846 21.5306 11.0293 21.2531 11.2388C20.9757 11.4482 20.9206 11.8428 21.13 12.1201C22.1786 13.5093 22.6252 15.2868 22.3551 16.9972C22.3009 17.3405 22.5352 17.6627 22.8784 17.7169C22.9117 17.7222 22.9447 17.7248 22.9774 17.7248C23.2816 17.7248 23.5492 17.5036 23.5981 17.1936C23.9212 15.1476 23.3876 13.0221 22.1344 11.362Z" fill="#8478DA"/>
<path d="M31.6931 15.4601L29.7267 14.2853C28.4534 13.5246 28.0223 11.9145 28.7454 10.6197L29.8616 8.61873C29.9696 8.42517 29.9677 8.18917 29.8569 7.9973C29.7459 7.80542 29.5423 7.68605 29.3207 7.68299L27.0341 7.65155C25.5488 7.63092 24.3691 6.45105 24.3484 4.96537L24.317 2.67937C24.3139 2.45781 24.1946 2.25412 24.0027 2.14325C23.8109 2.03231 23.5748 2.03056 23.3813 2.1385L21.3803 3.25499C20.0855 3.97799 18.4756 3.54674 17.715 2.27356L16.5401 0.306562C16.4266 0.1165 16.2215 0 16 0C15.7785 0 15.5733 0.1165 15.4598 0.306624L14.285 2.27356C13.5243 3.54681 11.9143 3.97793 10.6197 3.25499L8.61866 2.13812C8.4251 2.03012 8.1891 2.03187 7.99716 2.14281C7.80529 2.25368 7.68585 2.45737 7.68279 2.67899L7.65135 4.96587C7.63129 6.45136 6.45167 7.63117 4.96579 7.65186L2.67911 7.6833C2.45755 7.6863 2.25386 7.80574 2.14299 7.99761C2.03205 8.18948 2.0303 8.42555 2.13824 8.61905L3.25461 10.6202C3.97755 11.9149 3.54642 13.5248 2.27311 14.2855L0.306866 15.4602C0.116741 15.5738 0.000303736 15.779 0.000366236 16.0004C0.000366236 16.2219 0.116866 16.427 0.306991 16.5406L2.2733 17.7147C3.54648 18.4753 3.97761 20.0856 3.25467 21.3808L2.13842 23.3811C2.03042 23.5747 2.03224 23.8107 2.14311 24.0026C2.25399 24.1945 2.45767 24.3139 2.6793 24.317L4.96592 24.3484C6.45179 24.369 7.63141 25.5488 7.65154 27.0346L7.68298 29.3213C7.68598 29.5429 7.80541 29.7465 7.99735 29.8574C8.18935 29.9684 8.42535 29.9701 8.61885 29.8621L10.6198 28.7453C11.9146 28.0228 13.5246 28.4541 14.2852 29.7273L15.46 31.6936C15.5736 31.8838 15.7787 32.0001 16.0001 32.0001C16.2216 32.0001 16.4267 31.8837 16.5403 31.6936L17.7151 29.7273C18.4757 28.4541 20.0859 28.0227 21.3805 28.7452L23.3815 29.8621C23.5751 29.9701 23.8111 29.9684 24.003 29.8574C24.1949 29.7466 24.3143 29.5429 24.3174 29.3213L24.3488 27.0346C24.3694 25.549 25.5491 24.3691 27.0344 24.3484L29.3211 24.317C29.5426 24.314 29.7463 24.1945 29.8572 24.0026C29.9682 23.8108 29.9699 23.5747 29.8619 23.3811L28.7457 21.3806C28.0228 20.0856 28.4539 18.4753 29.727 17.7148L31.6934 16.5406C31.8835 16.427 32 16.2219 32 16.0004C31.9996 15.7788 31.8832 15.5737 31.6931 15.4601ZM29.0812 16.6342C28.1871 17.1685 27.5461 18.0168 27.2768 19.0229C27.0073 20.0292 27.1386 21.0843 27.6464 21.9939L28.2485 23.0729L27.0167 23.0899C25.974 23.1044 24.9936 23.5186 24.2561 24.2562C23.5188 24.9938 23.1047 25.9743 23.0902 27.0171L23.0732 28.2487L21.9936 27.646C21.0841 27.1385 20.029 27.0074 19.0231 27.277C18.017 27.5465 17.1687 28.1874 16.6345 29.0816L15.9999 30.1438L15.3653 29.0816C14.8312 28.1874 13.9828 27.5466 12.9768 27.277C12.6348 27.1854 12.2872 27.1401 11.9415 27.1401C11.2703 27.1401 10.6065 27.311 10.0062 27.6461L8.92654 28.2487L8.90954 27.0173C8.89541 25.9745 8.48147 24.994 7.74385 24.2562C7.00629 23.5186 6.02585 23.1044 4.98298 23.0899L3.75123 23.0729L4.35336 21.994C4.86111 21.0843 4.99242 20.0292 4.72298 19.0229C4.45355 18.0168 3.81273 17.1684 2.91836 16.6341L1.85655 16L2.91849 15.3656C3.81267 14.8313 4.45361 13.9831 4.72304 12.977C4.99248 11.9709 4.86117 10.9159 4.35348 10.0066L3.75111 8.92692L4.98304 8.90992C6.02592 8.89542 7.00635 8.48136 7.74385 7.74386C8.48147 7.00617 8.89547 6.02561 8.90954 4.98268L8.92654 3.75106L10.006 4.35362C10.9154 4.86149 11.9704 4.99274 12.9766 4.7233C13.9827 4.45387 14.831 3.81306 15.3653 2.91868L15.9998 1.85618L16.6345 2.91874C17.1687 3.81293 18.017 4.45387 19.0231 4.7233C20.0293 4.99262 21.0843 4.86149 21.9935 4.35374L23.0732 3.75137L23.0902 4.98268C23.1046 6.02568 23.5188 7.00624 24.2561 7.74374C24.9935 8.48123 25.9739 8.8953 27.0168 8.9098L28.2486 8.9268L27.6465 10.0062C27.1386 10.9157 27.0073 11.9707 27.2768 12.9769C27.5461 13.9829 28.187 14.8312 29.0812 15.3655L30.1432 15.9999L29.0812 16.6342Z" fill="#8478DA"/>
<path d="M19.9336 10.9022C20.2811 10.9022 20.5628 10.6204 20.5628 10.2729C20.5628 9.9254 20.2811 9.64368 19.9336 9.64368C19.586 9.64368 19.3043 9.9254 19.3043 10.2729C19.3043 10.6204 19.586 10.9022 19.9336 10.9022Z" fill="#8478DA"/>
</g>
<defs>
<clipPath id="clip0_19925_99654">
<rect width="32" height="32" fill="white"/>
</clipPath>
</defs>
</svg>
