<svg width="45" height="44" viewBox="0 0 45 44" fill="none" xmlns="http://www.w3.org/2000/svg">
<rect x="1.25" y="0.75" width="42.5" height="42.5" rx="15.25" stroke="#655CD2" stroke-width="1.5"/>
<path d="M30.8445 29.5152C29.7221 29.5152 28.7184 30.2679 28.4035 31.3457L28.3571 31.5049H14.9694C13.8645 31.5049 12.9653 30.606 12.9653 29.501C12.9653 28.3958 13.8645 27.4969 14.9694 27.4969H22.8334C24.5479 27.4969 25.9427 26.1021 25.9427 24.3877V22.5693L30.1762 20.1133C30.7892 19.7576 31.2216 19.1554 31.3627 18.4607L32.5399 12.6625C32.6887 11.9296 32.5026 11.1773 32.0295 10.5985C31.5564 10.0195 30.856 9.6874 30.1083 9.6874H29.5372L29.4736 9.62748C29.317 9.48091 29.113 9.39999 28.899 9.39999H27.6072C27.1441 9.39999 26.7671 9.77693 26.7671 10.2401C26.7671 10.7033 27.1441 11.0802 27.6072 11.0802H28.899C29.113 11.0802 29.317 10.9995 29.4736 10.8527L29.5372 10.7928H30.1083C30.523 10.7928 30.9113 10.977 31.1737 11.298C31.4361 11.619 31.5391 12.0361 31.4567 12.4425L30.2794 18.2408C30.2011 18.6259 29.9615 18.9599 29.6215 19.1571L25.39 21.6122L21.1585 19.1571C20.8187 18.9599 20.5789 18.6259 20.5006 18.2408L19.3236 12.4425C19.2409 12.0361 19.3441 11.619 19.6066 11.298C19.869 10.977 20.2572 10.7928 20.6717 10.7928H21.325L21.3889 10.8527C21.5452 10.9995 21.7493 11.0802 21.9633 11.0802H23.173C23.6362 11.0802 24.0131 10.7033 24.0131 10.2401C24.0131 9.77693 23.6362 9.39999 23.173 9.39999H21.9633C21.7493 9.39999 21.5452 9.48091 21.3889 9.62748L21.325 9.6874H20.6717C19.924 9.6874 19.2239 10.0195 18.7508 10.5985C18.2774 11.1773 18.0915 11.9296 18.2401 12.6625L19.4173 18.4607C19.5584 19.1554 19.9908 19.7576 20.6038 20.1133L24.8373 22.5693V24.3877C24.8373 25.4926 23.9384 26.3915 22.8334 26.3915H14.9694C13.2547 26.3915 11.8599 27.7865 11.8599 29.501C11.8599 31.2155 13.2547 32.6103 14.9694 32.6103H28.3571L28.4035 32.7692C28.7184 33.8472 29.7221 34.6 30.8445 34.6C32.2464 34.6 33.3869 33.4594 33.3869 32.0576C33.3869 30.6557 32.2464 29.5152 30.8445 29.5152ZM31.8442 33.0882C31.8376 33.0947 31.8309 33.1011 31.8243 33.1073C31.8122 33.1188 31.7998 33.1298 31.7872 33.1409C31.7832 33.1444 31.7792 33.1482 31.7752 33.1517L31.7456 33.1773L31.743 33.1791C31.5862 33.3082 31.4074 33.4011 31.2106 33.455C31.0866 33.4891 30.959 33.5063 30.8312 33.5063C30.1857 33.5063 29.6155 33.0714 29.4451 32.4489C29.3022 31.9276 29.4669 31.3656 29.8649 31.005C30.1156 30.7716 30.449 30.6292 30.8131 30.6212C30.8237 30.621 30.8341 30.6206 30.8447 30.6206C31.3894 30.6206 31.8643 30.9252 32.108 31.3731C32.2187 31.5767 32.2817 31.81 32.2817 32.0576C32.2817 32.0834 32.2811 32.1091 32.2795 32.1345C32.2793 32.1398 32.2786 32.1451 32.2784 32.1502C32.2771 32.1705 32.2755 32.1909 32.2733 32.211C32.2727 32.2168 32.2718 32.2225 32.2711 32.2285C32.2687 32.2481 32.2662 32.2676 32.2632 32.2871C32.2623 32.2928 32.2612 32.2986 32.2601 32.3041C32.2567 32.3235 32.253 32.3428 32.2488 32.362C32.2475 32.3675 32.2461 32.3733 32.2448 32.3788C32.2404 32.3978 32.2357 32.4168 32.2307 32.4356C32.2291 32.4414 32.2273 32.4469 32.2258 32.4526C32.2205 32.4712 32.2147 32.4898 32.2088 32.5079C32.2068 32.5137 32.205 32.5194 32.203 32.5252C32.1968 32.5431 32.1902 32.561 32.1833 32.5784C32.1811 32.5844 32.1787 32.5904 32.1763 32.5961C32.1692 32.6134 32.1619 32.6304 32.1542 32.6474C32.1515 32.6534 32.1489 32.6594 32.146 32.6653C32.138 32.6821 32.1298 32.6987 32.1212 32.7153C32.1181 32.721 32.1155 32.727 32.1124 32.7327C32.1031 32.75 32.0934 32.767 32.0834 32.7838C32.0808 32.7885 32.0781 32.7931 32.0755 32.7978C32.0626 32.819 32.0491 32.84 32.0354 32.8605C32.0346 32.8619 32.0335 32.8634 32.0323 32.8647C32.0195 32.8835 32.0063 32.9019 31.9928 32.92C31.9875 32.9269 31.9819 32.9337 31.9766 32.9406C31.9669 32.9532 31.957 32.9655 31.9468 32.9777C31.9406 32.9852 31.934 32.9925 31.9276 32.9998C31.9176 33.0113 31.9077 33.0226 31.8973 33.0336C31.8906 33.0407 31.8838 33.0478 31.8771 33.0549C31.8663 33.0666 31.8555 33.0776 31.8442 33.0882Z" fill="#655CD2" stroke="#655CD2" stroke-width="0.3"/>
<path d="M30.8441 31.0627C30.5914 31.0627 30.3591 31.1564 30.1824 31.3136C29.8954 31.5586 29.7666 31.9517 29.8707 32.3319C30.0157 32.861 30.564 33.1733 31.093 33.0285C31.2389 32.9885 31.3685 32.9178 31.4764 32.8251C31.4766 32.8251 31.4766 32.8249 31.4768 32.8249C31.4804 32.8221 31.4837 32.819 31.4872 32.8161C31.7023 32.6335 31.8392 32.3613 31.8392 32.0578C31.839 31.5091 31.3926 31.0627 30.8441 31.0627Z" fill="#655CD2"/>
</svg>
