<svg width="24" height="24" viewBox="0 0 24 24" fill="none" xmlns="http://www.w3.org/2000/svg">
<g clip-path="url(#clip0_1_6296)">
<path d="M19.6453 5.59244C19.6323 5.58778 19.6167 5.58571 19.6016 5.58364V3.10882C19.6016 2.26832 19.0985 1.48669 18.2841 1.07065C17.4957 0.67012 16.5174 0.67012 15.7294 1.07065C15.55 1.16269 15.392 1.27401 15.2462 1.39679C15.0247 0.941226 14.6457 0.554217 14.1518 0.300396C13.3635 -0.100132 12.3851 -0.100132 11.5972 0.300396C11.2341 0.486551 10.9382 0.747094 10.7155 1.04886C10.494 0.746724 10.1986 0.486551 9.83511 0.300396C9.04713 -0.100132 8.06885 -0.0979898 7.28087 0.300396C6.76858 0.563081 6.38112 0.970258 6.16261 1.44517C6.03992 1.35106 5.91086 1.2653 5.77095 1.19342C4.9826 0.792524 4.00174 0.792524 3.2142 1.19342C2.40185 1.60695 1.89635 2.38821 1.89635 3.23078V11.4894C1.89044 14.1701 2.75909 15.2754 3.45753 16.1642C3.99753 16.8538 4.42702 17.3972 4.43795 18.5545V20.3535C4.43795 23.4045 6.08365 24 8.92864 24H13.8867C16.728 24 18.3741 23.4045 18.3741 20.3535V18.6772C18.3892 17.3706 18.8095 16.8516 19.4512 16.0679C20.2126 15.1333 21.1603 13.9709 21.7819 11.0973C22.4274 8.14667 22.2828 6.29975 19.6453 5.59244ZM17.8879 1.8477C18.406 2.11452 18.7284 2.59571 18.7284 3.10845V5.47653L15.4517 5.07349C15.4585 5.0432 15.4694 5.01676 15.4694 4.98817V2.45994C15.616 2.2107 15.8438 1.99389 16.1263 1.84762C16.6692 1.57157 17.3449 1.57157 17.8879 1.8477ZM13.7556 1.07737C14.2737 1.34419 14.5961 1.82539 14.5961 2.33975V4.96882L13.182 4.79359C12.4663 4.79359 11.796 5.15918 11.3585 5.76559L11.1552 2.33598C11.1552 1.82369 11.4771 1.34212 11.9935 1.07737C12.5365 0.800872 13.2126 0.800872 13.7556 1.07737ZM9.43886 1.07907C9.95788 1.34427 10.2814 1.82753 10.2814 2.33982L10.5777 7.32855C10.5777 7.84291 10.2554 8.32455 9.73723 8.5893C9.19428 8.86499 8.51769 8.86499 7.97511 8.5893C7.45609 8.32455 7.13461 7.84299 7.13461 7.30462L6.83706 2.33355C6.83912 1.82376 7.16105 1.3422 7.67756 1.07744C8.22228 0.803383 8.8968 0.800872 9.43886 1.07907ZM5.37515 1.96951C5.62439 2.09893 5.82561 2.28509 5.97232 2.49983L6.23752 6.91406C6.17783 7.36246 5.88493 7.7768 5.42095 8.01259C4.878 8.28909 4.20186 8.28909 3.65632 8.01259C3.13982 7.74828 2.81582 7.26628 2.81582 6.75398C2.81582 6.69097 2.80533 6.63335 2.77881 6.57913L2.78509 3.13357C2.82498 2.65658 3.12674 2.21661 3.61045 1.97158C4.15598 1.69427 4.8322 1.69427 5.37515 1.96951ZM13.8867 23.1267H8.92908C6.09074 23.1267 5.31118 22.5316 5.31118 20.3535V19.1079H17.5003V20.3535C17.5004 22.5316 16.723 23.1267 13.8867 23.1267ZM18.7725 15.514C18.164 16.2599 17.6336 16.9235 17.5243 18.2351H5.29153C5.202 16.9849 4.66791 16.2915 4.14468 15.6233C3.46596 14.7609 2.76544 13.8709 2.77009 11.491L2.77681 8.46653C2.92389 8.58923 3.0836 8.70063 3.26052 8.79267C3.6547 8.99227 4.09637 9.09229 4.53849 9.09229C4.98061 9.09229 5.42265 8.99227 5.81727 8.79053C6.077 8.65897 6.30304 8.48419 6.49341 8.2871C6.71613 8.7355 7.09058 9.11874 7.57887 9.36798C7.97304 9.56758 8.41472 9.66849 8.85683 9.66849C9.29895 9.66849 9.73937 9.56765 10.1335 9.36798C10.5319 9.16461 10.8559 8.87127 11.0833 8.52541C11.1052 8.57202 11.1203 8.61952 11.1447 8.66532C11.5545 9.47095 12.3113 9.76843 13.0997 9.97645L13.4867 10.0513C12.2259 11.2246 12.0356 13.1224 12.0356 14.8795C12.0356 15.1203 12.2306 15.3153 12.473 15.3153C12.7142 15.3153 12.9088 15.1202 12.9088 14.8795C12.9088 13.0123 13.1122 11.1695 14.5831 10.3182L17.094 10.743C17.3302 10.7888 17.5601 10.6329 17.6063 10.3946C17.6501 10.1585 17.4963 9.92859 17.2584 9.88448L13.2938 9.12509C12.6265 8.94773 12.1626 8.74185 11.9238 8.26907C11.6461 7.72657 11.6461 7.05249 11.9238 6.5074C12.1869 5.98883 12.6681 5.66904 13.1295 5.66483L19.4491 6.44395C21.2461 6.93437 21.5768 7.94293 20.9304 10.9132C20.3501 13.5817 19.4751 14.6542 18.7725 15.514Z" fill="#655CD2" stroke="#655CD2" stroke-width="0.2"/>
</g>
<defs>
<clipPath id="clip0_1_6296">
<rect width="24" height="24" fill="white"/>
</clipPath>
</defs>
</svg>
