<svg width="24" height="24" viewBox="0 0 24 24" fill="none" xmlns="http://www.w3.org/2000/svg">
<g clip-path="url(#clip0_1_6304)">
<path d="M4.08001 11.9561C4.06834 11.8507 4.01526 11.7542 3.93244 11.6879C3.84962 11.6216 3.74386 11.5909 3.63841 11.6025C3.53296 11.6142 3.43646 11.6673 3.37015 11.7501C3.30384 11.8329 3.27314 11.9387 3.28481 12.0441C3.34602 12.5995 3.44221 13.1505 3.57281 13.6937C3.59763 13.7969 3.66242 13.886 3.75293 13.9414C3.84343 13.9968 3.95224 14.014 4.05541 13.9891C4.15858 13.9643 4.24766 13.8995 4.30306 13.809C4.35846 13.7185 4.37563 13.6097 4.35081 13.5065C4.22795 12.996 4.1375 12.4781 4.08001 11.9561Z" fill="#655CD2"/>
<path d="M6.9368 5.63764C4.5976 5.87244 3.2 8.30044 3.2 10.512C3.2 10.6181 3.24214 10.7199 3.31715 10.7949C3.39217 10.8699 3.49391 10.912 3.6 10.912C3.70608 10.912 3.80783 10.8699 3.88284 10.7949C3.95785 10.7199 4 10.6181 4 10.512C4 8.65604 5.1284 6.62324 7.0164 6.43204C7.12195 6.42143 7.21897 6.36932 7.28611 6.28718C7.35325 6.20504 7.38501 6.0996 7.3744 5.99404C7.36379 5.88848 7.31168 5.79146 7.22954 5.72433C7.1474 5.65719 7.04195 5.62543 6.9364 5.63604L6.9368 5.63764Z" fill="#655CD2"/>
<path d="M23.0528 20.2157L23.4168 19.9029C23.5194 19.8173 23.5988 19.7072 23.6478 19.5829C23.6967 19.4585 23.7135 19.3239 23.6968 19.1913C23.6817 19.0617 23.6345 18.9378 23.5594 18.8311C23.4843 18.7244 23.3837 18.6381 23.2668 18.5801L22.8268 18.3553L23.3292 16.9601C23.3801 16.8181 23.3895 16.6645 23.3563 16.5173C23.3232 16.3701 23.2488 16.2354 23.142 16.1289C23.0343 16.021 22.8981 15.946 22.7494 15.9125C22.6007 15.879 22.4456 15.8884 22.302 15.9397L21.24 16.3201C22.0114 14.4812 22.4058 12.5062 22.4 10.5121C22.4 7.1817 20.1284 4.3413 17.2288 4.0461C15.9177 3.87642 14.5857 4.09781 13.4 4.6825C13.8444 2.8969 14.9056 2.2913 14.9472 2.2681C15.2251 2.12061 15.4339 1.86993 15.5287 1.57C15.6236 1.27008 15.5969 0.944901 15.4544 0.664474C15.3118 0.384046 15.0649 0.170794 14.7667 0.0706258C14.4685 -0.0295428 14.1429 -0.00861764 13.86 0.128897C12.868 0.715652 12.0793 1.59197 11.6 2.6401C11.1407 1.97987 10.554 1.41818 9.8744 0.988097C9.12211 0.495782 8.2693 0.177825 7.37833 0.057474C6.48736 -0.0628771 5.58075 0.0174209 4.7248 0.292497C4.49598 0.364241 4.29913 0.513146 4.16783 0.713816C4.03653 0.914486 3.97891 1.15449 4.0048 1.3929C4.18087 2.49838 4.63418 3.54124 5.3224 4.4241C3.1508 5.3469 1.6 7.7601 1.6 10.5121C1.5848 13.2261 2.31717 15.892 3.7168 18.2173C3.884 18.4973 4.0616 18.7673 4.2428 19.0317L1.6828 19.6557C1.15941 19.7834 0.700931 20.0984 0.39403 20.5412C0.0871292 20.984 -0.0469287 21.5239 0.0171964 22.0588C0.0813214 22.5937 0.339186 23.0866 0.742049 23.4443C1.14491 23.802 1.66486 23.9997 2.2036 24.0001H5.9964H6H6.0032H10.3936H10.4H10.4064H14.79C14.7936 24.0001 14.7964 24.0021 14.8 24.0021C14.8036 24.0021 14.8064 24.0001 14.81 24.0001H16.7472C17.3054 23.9999 17.8572 23.8815 18.3663 23.6526C18.8754 23.4237 19.3302 23.0895 19.7008 22.6721C19.7914 22.5698 19.8769 22.463 19.9568 22.3521L23.1132 22.6937C23.1424 22.6969 23.1718 22.6985 23.2012 22.6985C23.3454 22.698 23.4867 22.6585 23.6103 22.5842C23.7339 22.51 23.8351 22.4037 23.9032 22.2767C23.9714 22.1496 24.004 22.0065 23.9975 21.8625C23.991 21.7185 23.9457 21.5789 23.8664 21.4585L23.0528 20.2157ZM14.2216 0.842497C14.2687 0.819037 14.3199 0.805093 14.3724 0.801464C14.4249 0.797836 14.4776 0.804593 14.5274 0.82135C14.5773 0.838107 14.6234 0.864534 14.663 0.899118C14.7026 0.933702 14.735 0.975765 14.7584 1.0229C14.8046 1.119 14.8108 1.22947 14.7757 1.33014C14.7406 1.43081 14.6671 1.51349 14.5712 1.5601C14.3948 1.6569 12.886 2.5641 12.4984 5.1297C12.2337 5.2054 11.9552 5.21909 11.6844 5.1697C12.0972 2.0401 14.004 0.955297 14.2216 0.842497ZM4.8 1.3105C4.79364 1.25443 4.80724 1.19792 4.8384 1.15089C4.86956 1.10385 4.9163 1.0693 4.9704 1.0533C5.7128 0.809546 6.50085 0.737583 7.27511 0.842837C8.04938 0.94809 8.78962 1.22781 9.44 1.6609C10.1952 2.12894 10.8099 2.79231 11.2192 3.5809C11.0854 3.99891 10.9852 4.42693 10.9196 4.8609C10.6699 4.71072 10.4088 4.58019 10.1388 4.4705C9.39557 3.27949 8.23975 2.40391 6.892 2.0109C6.78873 1.9866 6.68003 2.00433 6.58983 2.06018C6.49962 2.11603 6.4353 2.20542 6.411 2.3087C6.38671 2.41197 6.40444 2.52067 6.46029 2.61087C6.51613 2.70108 6.60553 2.7654 6.7088 2.7897C7.52453 3.03796 8.26235 3.49264 8.85081 4.1097C8.16444 3.99346 7.46534 3.97232 6.7732 4.0469C6.55885 4.06989 6.34625 4.10704 6.1368 4.1581C5.44482 3.34536 4.98322 2.36207 4.8 1.3105ZM4.4 17.8065C3.07652 15.6047 2.38459 13.081 2.4 10.5121C2.4 7.9449 4.0652 5.1221 6.8532 4.8401C8.1473 4.65919 9.46445 4.92366 10.5884 5.5901C11.0112 5.85596 11.5004 5.99701 11.9998 5.99701C12.4992 5.99701 12.9885 5.85596 13.4112 5.5901C14.5365 4.92647 15.8529 4.6622 17.1472 4.8401C19.9344 5.1257 21.6 7.9477 21.6 10.5121C21.6074 12.6551 21.1256 14.7715 20.1912 16.7001L19.2844 17.0269C19.1916 16.9469 19.0968 16.8733 18.9964 16.8037C18.5375 16.4857 18.0165 16.2686 17.4676 16.1667C16.9187 16.0648 16.3544 16.0804 15.812 16.2125L5.08 18.8281C4.8436 18.5013 4.6156 18.1601 4.4032 17.8065H4.4ZM19.1024 22.1389C18.8069 22.4717 18.4442 22.7382 18.0383 22.9207C17.6323 23.1032 17.1923 23.1976 16.7472 23.1977H15.2V22.0001C15.2 21.894 15.1579 21.7923 15.0828 21.7173C15.0078 21.6422 14.9061 21.6001 14.8 21.6001C14.6939 21.6001 14.5922 21.6422 14.5172 21.7173C14.4421 21.7923 14.4 21.894 14.4 22.0001V23.2001H10.8V22.0001C10.8 21.894 10.7579 21.7923 10.6828 21.7173C10.6078 21.6422 10.5061 21.6001 10.4 21.6001C10.2939 21.6001 10.1922 21.6422 10.1172 21.7173C10.0421 21.7923 10 21.894 10 22.0001V23.2001H6.4V22.0001C6.4 21.894 6.35786 21.7923 6.28285 21.7173C6.20783 21.6422 6.10609 21.6001 6 21.6001C5.89392 21.6001 5.79218 21.6422 5.71716 21.7173C5.64215 21.7923 5.6 21.894 5.6 22.0001V23.2001H2.2036C1.8602 23.2004 1.52859 23.0748 1.27157 22.8471C1.01456 22.6193 0.849987 22.3052 0.809025 21.9643C0.768063 21.6233 0.853555 21.2792 1.04931 20.997C1.24506 20.7149 1.53749 20.5143 1.8712 20.4333L8 18.9397V20.0001C8 20.1062 8.04215 20.2079 8.11716 20.2829C8.19218 20.358 8.29392 20.4001 8.4 20.4001C8.50609 20.4001 8.60783 20.358 8.68285 20.2829C8.75786 20.2079 8.8 20.1062 8.8 20.0001V18.7449L12 17.9649V19.2001C12 19.3062 12.0421 19.4079 12.1172 19.4829C12.1922 19.558 12.2939 19.6001 12.4 19.6001C12.5061 19.6001 12.6078 19.558 12.6828 19.4829C12.7579 19.4079 12.8 19.3062 12.8 19.2001V17.7701L16 16.9901C16.6519 16.8312 17.3374 16.8847 17.9567 17.1428C18.5761 17.4008 19.0968 17.85 19.443 18.4247C19.7891 18.9994 19.9427 19.6697 19.8812 20.3378C19.8197 21.006 19.5464 21.637 19.1012 22.1389H19.1024ZM20.3824 21.5893C20.6548 20.9492 20.7527 20.2484 20.6664 19.5582C20.58 18.868 20.3124 18.213 19.8908 17.6597L22.5764 16.6929L22.0764 18.0865C22.01 18.2694 22.013 18.4704 22.0849 18.6512C22.1568 18.8321 22.2925 18.9803 22.4664 19.0677L22.9008 19.2925L22.5312 19.6097C22.3834 19.7362 22.2871 19.9125 22.2605 20.1053C22.2339 20.298 22.2788 20.4939 22.3868 20.6557L23.2 21.8945L20.3824 21.5893Z" fill="#655CD2"/>
</g>
<defs>
<clipPath id="clip0_1_6304">
<rect width="24" height="24" fill="white"/>
</clipPath>
</defs>
</svg>
