<svg width="45" height="44" viewBox="0 0 45 44" fill="none" xmlns="http://www.w3.org/2000/svg">
<rect x="1.25" y="0.75" width="42.5" height="42.5" rx="15.25" stroke="#655CD2" stroke-width="1.5"/>
<g clip-path="url(#clip0_1_1008)">
<path d="M29.7814 9.93698C28.3624 9.73343 26.9149 9.90718 25.5844 10.4408C24.4349 10.9063 23.3873 11.5915 22.5 12.458C21.6128 11.5915 20.5651 10.9063 19.4157 10.4408C18.0852 9.90709 16.6376 9.73334 15.2186 9.93698C13.8102 10.1451 12.484 10.7294 11.38 11.6284C10.276 12.5274 9.43506 13.7077 8.94595 15.0448C7.72571 18.3762 8.99517 22.1584 12.7194 26.2862C15.6385 29.5217 19.4545 32.2891 22.1416 34.0409C22.2482 34.1104 22.3728 34.1474 22.5 34.1474C22.6273 34.1474 22.7518 34.1104 22.8584 34.0409C25.5456 32.289 29.3616 29.5216 32.2807 26.2862C36.0049 22.1584 37.2744 18.3762 36.0541 15.0448C35.565 13.7077 34.724 12.5274 33.62 11.6284C32.516 10.7294 31.1898 10.1451 29.7814 9.93698ZM22.5 32.706C17.7123 29.5371 7.79024 22.0164 10.1783 15.4962C10.5864 14.3808 11.2878 13.3962 12.2088 12.6463C13.1298 11.8964 14.2361 11.4089 15.411 11.2353C15.7351 11.1873 16.0623 11.1631 16.3899 11.1631C18.4396 11.1631 20.4465 12.1081 22.0134 13.8414C22.0749 13.9095 22.15 13.9638 22.2339 14.0011C22.3177 14.0383 22.4084 14.0575 22.5001 14.0575C22.5919 14.0575 22.6826 14.0383 22.7664 14.0011C22.8502 13.9638 22.9253 13.9095 22.9869 13.8414C24.8028 11.8327 27.2092 10.8829 29.5891 11.2353C30.764 11.4089 31.8703 11.8964 32.7912 12.6463C33.7122 13.3962 34.4137 14.3808 34.8217 15.4962C37.2098 22.0164 27.2878 29.5371 22.5 32.706ZM33.4867 15.9852C33.8275 16.9157 33.8501 17.9533 33.554 19.0696C33.5094 19.2378 33.3997 19.3814 33.2492 19.4688C33.0986 19.5562 32.9196 19.5803 32.7513 19.5356C32.5831 19.491 32.4394 19.3813 32.352 19.2308C32.2646 19.0803 32.2406 18.9012 32.2853 18.7329C32.511 17.8821 32.5006 17.1096 32.2541 16.4368C32.0151 15.7832 31.6041 15.2063 31.0645 14.7669C30.5249 14.3275 29.8767 14.0419 29.1883 13.9402C29.0161 13.9146 28.8612 13.8218 28.7575 13.682C28.6537 13.5422 28.6098 13.367 28.6353 13.1948C28.6608 13.0226 28.7537 12.8676 28.8935 12.7639C29.0333 12.6602 29.2085 12.6163 29.3807 12.6418C30.3026 12.778 31.1707 13.1605 31.8934 13.7489C32.6161 14.3374 33.1666 15.11 33.4867 15.9852Z" fill="#655CD2"/>
</g>
<defs>
<clipPath id="clip0_1_1008">
<rect width="28" height="28" fill="white" transform="translate(8.5 8)"/>
</clipPath>
</defs>
</svg>
