<svg width="45" height="44" viewBox="0 0 45 44" fill="none" xmlns="http://www.w3.org/2000/svg">
<rect x="1.25" y="0.75" width="42.5" height="42.5" rx="15.25" stroke="#655CD2" stroke-width="1.5"/>
<g clip-path="url(#clip0_1_1004)">
<path d="M11.4824 27.4945L13.1624 29.1745V33.6667C13.1632 34.2853 13.4093 34.8783 13.8467 35.3158C14.2841 35.7532 14.8772 35.9993 15.4958 36H34.1666C34.7853 35.9993 35.3783 35.7532 35.8157 35.3158C36.2532 34.8783 36.4992 34.2853 36.5 33.6667V22C36.4982 21.411 36.2733 20.8446 35.8707 20.4147C35.4681 19.9848 34.9176 19.7233 34.33 19.683C34.5653 19.2429 34.6536 18.739 34.582 18.2451C34.5103 17.7512 34.2825 17.2932 33.9319 16.9381L27.9894 10.9918L27.9866 10.9867H27.9824L25.6812 8.68273C25.2438 8.24616 24.651 8.00096 24.033 8.00096C23.4149 8.00096 22.8222 8.24616 22.3847 8.68273L9.18178 21.8908C8.74653 22.3306 8.50238 22.9243 8.50238 23.543C8.50238 24.1618 8.74653 24.7555 9.18178 25.1953L11.4824 27.4945ZM25.678 9.9992L26.9963 11.3185L18.6528 19.6667H16.0133L25.678 9.9992ZM13.1666 25.1528L11.8133 26.5061L10.4945 25.1873L13.1666 22.5133V25.1528ZM12.4732 27.166L13.1666 26.4725V27.8595L12.4732 27.166ZM35.5666 22V33.6667C35.5666 34.038 35.4191 34.3941 35.1566 34.6566C34.894 34.9192 34.538 35.0667 34.1666 35.0667H15.5C15.1287 35.0667 14.7726 34.9192 14.51 34.6566C14.2475 34.3941 14.1 34.038 14.1 33.6667V22C14.1 21.6287 14.2475 21.2726 14.51 21.0101C14.7726 20.7475 15.1287 20.6 15.5 20.6H34.1666C34.538 20.6 34.894 20.7475 35.1566 21.0101C35.4191 21.2726 35.5666 21.6287 35.5666 22ZM33.272 19.5794L33.1866 19.6667H19.972L27.6562 11.9788L33.2706 17.5965C33.5325 17.86 33.6795 18.2163 33.6798 18.5877C33.6801 18.9591 33.5335 19.3156 33.272 19.5794ZM9.84258 22.5493L23.0446 9.3426C23.3105 9.08851 23.6639 8.94648 24.0317 8.94595C24.3995 8.94543 24.7534 9.08646 25.02 9.3398L14.4154 19.9467C14.0029 20.1653 13.6654 20.5026 13.4466 20.915L9.83558 24.5265C9.57769 24.2616 9.43396 23.9062 9.43527 23.5365C9.43658 23.1668 9.58282 22.8123 9.84258 22.5493Z" fill="#655CD2" stroke="#655CD2" stroke-width="0.3"/>
<path d="M15.9667 25.7333H18.7667C19.0142 25.7333 19.2516 25.635 19.4266 25.46C19.6017 25.2849 19.7 25.0475 19.7 24.8V22.9333C19.7 22.6858 19.6017 22.4484 19.4266 22.2734C19.2516 22.0983 19.0142 22 18.7667 22H15.9667C15.7191 22 15.4817 22.0983 15.3067 22.2734C15.1317 22.4484 15.0333 22.6858 15.0333 22.9333V24.8C15.0333 25.0475 15.1317 25.2849 15.3067 25.46C15.4817 25.635 15.7191 25.7333 15.9667 25.7333ZM15.9667 22.9333H18.7667V24.8H15.9667V22.9333Z" fill="#655CD2"/>
<path d="M15.5 28.5333C15.6238 28.5333 15.7425 28.4842 15.83 28.3967C15.9175 28.3091 15.9667 28.1904 15.9667 28.0667V27.1333C15.9667 27.0096 15.9175 26.8909 15.83 26.8034C15.7425 26.7158 15.6238 26.6667 15.5 26.6667C15.3762 26.6667 15.2575 26.7158 15.17 26.8034C15.0825 26.8909 15.0333 27.0096 15.0333 27.1333V28.0667C15.0333 28.1904 15.0825 28.3091 15.17 28.3967C15.2575 28.4842 15.3762 28.5333 15.5 28.5333Z" fill="#655CD2"/>
<path d="M17.3667 26.6667C17.2429 26.6667 17.1242 26.7158 17.0367 26.8034C16.9492 26.8909 16.9 27.0096 16.9 27.1333V28.0667C16.9 28.1904 16.9492 28.3091 17.0367 28.3967C17.1242 28.4842 17.2429 28.5333 17.3667 28.5333C17.4905 28.5333 17.6092 28.4842 17.6967 28.3967C17.7842 28.3091 17.8334 28.1904 17.8334 28.0667V27.1333C17.8334 27.0096 17.7842 26.8909 17.6967 26.8034C17.6092 26.7158 17.4905 26.6667 17.3667 26.6667Z" fill="#655CD2"/>
<path d="M18.7667 27.1333V28.0667C18.7667 28.1904 18.8158 28.3091 18.9033 28.3967C18.9909 28.4842 19.1096 28.5333 19.2333 28.5333C19.3571 28.5333 19.4758 28.4842 19.5633 28.3967C19.6508 28.3091 19.7 28.1904 19.7 28.0667V27.1333C19.7 27.0096 19.6508 26.8909 19.5633 26.8034C19.4758 26.7158 19.3571 26.6667 19.2333 26.6667C19.1096 26.6667 18.9909 26.7158 18.9033 26.8034C18.8158 26.8909 18.7667 27.0096 18.7667 27.1333Z" fill="#655CD2"/>
<path d="M21.1 26.6667C20.9763 26.6667 20.8576 26.7158 20.77 26.8034C20.6825 26.8909 20.6334 27.0096 20.6334 27.1333V28.0667C20.6334 28.1904 20.6825 28.3091 20.77 28.3967C20.8576 28.4842 20.9763 28.5333 21.1 28.5333C21.2238 28.5333 21.3425 28.4842 21.43 28.3967C21.5175 28.3091 21.5667 28.1904 21.5667 28.0667V27.1333C21.5667 27.0096 21.5175 26.8909 21.43 26.8034C21.3425 26.7158 21.2238 26.6667 21.1 26.6667Z" fill="#655CD2"/>
<path d="M22.9667 28.5333C23.0904 28.5333 23.2091 28.4842 23.2967 28.3967C23.3842 28.3091 23.4333 28.1904 23.4333 28.0667V27.1333C23.4333 27.0096 23.3842 26.8909 23.2967 26.8034C23.2091 26.7158 23.0904 26.6667 22.9667 26.6667C22.8429 26.6667 22.7242 26.7158 22.6367 26.8034C22.5492 26.8909 22.5 27.0096 22.5 27.1333V28.0667C22.5 28.1904 22.5492 28.3091 22.6367 28.3967C22.7242 28.4842 22.8429 28.5333 22.9667 28.5333Z" fill="#655CD2"/>
<path d="M26.7 26.6667C26.5762 26.6667 26.4575 26.7158 26.37 26.8034C26.2825 26.8909 26.2333 27.0096 26.2333 27.1333V28.0667C26.2333 28.1904 26.2825 28.3091 26.37 28.3967C26.4575 28.4842 26.5762 28.5333 26.7 28.5333C26.8238 28.5333 26.9425 28.4842 27.03 28.3967C27.1175 28.3091 27.1667 28.1904 27.1667 28.0667V27.1333C27.1667 27.0096 27.1175 26.8909 27.03 26.8034C26.9425 26.7158 26.8238 26.6667 26.7 26.6667Z" fill="#655CD2"/>
<path d="M28.5666 26.6667C28.4429 26.6667 28.3242 26.7158 28.2367 26.8034C28.1491 26.8909 28.1 27.0096 28.1 27.1333V28.0667C28.1 28.1904 28.1491 28.3091 28.2367 28.3967C28.3242 28.4842 28.4429 28.5333 28.5666 28.5333C28.6904 28.5333 28.8091 28.4842 28.8966 28.3967C28.9841 28.3091 29.0333 28.1904 29.0333 28.0667V27.1333C29.0333 27.0096 28.9841 26.8909 28.8966 26.8034C28.8091 26.7158 28.6904 26.6667 28.5666 26.6667Z" fill="#655CD2"/>
<path d="M30.4333 26.6667C30.3096 26.6667 30.1909 26.7158 30.1034 26.8034C30.0158 26.8909 29.9667 27.0096 29.9667 27.1333V28.0667C29.9667 28.1904 30.0158 28.3091 30.1034 28.3967C30.1909 28.4842 30.3096 28.5333 30.4333 28.5333C30.5571 28.5333 30.6758 28.4842 30.7633 28.3967C30.8508 28.3091 30.9 28.1904 30.9 28.0667V27.1333C30.9 27.0096 30.8508 26.8909 30.7633 26.8034C30.6758 26.7158 30.5571 26.6667 30.4333 26.6667Z" fill="#655CD2"/>
<path d="M32.3 26.6667C32.1762 26.6667 32.0575 26.7158 31.97 26.8034C31.8825 26.8909 31.8333 27.0096 31.8333 27.1333V28.0667C31.8333 28.1904 31.8825 28.3091 31.97 28.3967C32.0575 28.4842 32.1762 28.5333 32.3 28.5333C32.4237 28.5333 32.5424 28.4842 32.63 28.3967C32.7175 28.3091 32.7666 28.1904 32.7666 28.0667V27.1333C32.7666 27.0096 32.7175 26.8909 32.63 26.8034C32.5424 26.7158 32.4237 26.6667 32.3 26.6667Z" fill="#655CD2"/>
<path d="M17.3667 29.4667H15.5C15.3762 29.4667 15.2575 29.5158 15.17 29.6034C15.0825 29.6909 15.0333 29.8096 15.0333 29.9333C15.0333 30.0571 15.0825 30.1758 15.17 30.2633C15.2575 30.3508 15.3762 30.4 15.5 30.4H17.3667C17.4904 30.4 17.6091 30.3508 17.6966 30.2633C17.7842 30.1758 17.8333 30.0571 17.8333 29.9333C17.8333 29.8096 17.7842 29.6909 17.6966 29.6034C17.6091 29.5158 17.4904 29.4667 17.3667 29.4667Z" fill="#655CD2"/>
<path d="M21.1 29.4667H19.2333C19.1096 29.4667 18.9909 29.5158 18.9033 29.6034C18.8158 29.6909 18.7667 29.8096 18.7667 29.9333C18.7667 30.0571 18.8158 30.1758 18.9033 30.2633C18.9909 30.3508 19.1096 30.4 19.2333 30.4H21.1C21.2238 30.4 21.3425 30.3508 21.43 30.2633C21.5175 30.1758 21.5667 30.0571 21.5667 29.9333C21.5667 29.8096 21.5175 29.6909 21.43 29.6034C21.3425 29.5158 21.2238 29.4667 21.1 29.4667Z" fill="#655CD2"/>
<path d="M17.3667 31.3333H15.5C15.3762 31.3333 15.2575 31.3825 15.17 31.47C15.0825 31.5575 15.0333 31.6762 15.0333 31.8C15.0333 31.9238 15.0825 32.0425 15.17 32.13C15.2575 32.2175 15.3762 32.2667 15.5 32.2667H17.3667C17.4904 32.2667 17.6091 32.2175 17.6966 32.13C17.7842 32.0425 17.8333 31.9238 17.8333 31.8C17.8333 31.6762 17.7842 31.5575 17.6966 31.47C17.6091 31.3825 17.4904 31.3333 17.3667 31.3333Z" fill="#655CD2"/>
<path d="M21.1 31.3333H19.2333C19.1096 31.3333 18.9909 31.3825 18.9033 31.47C18.8158 31.5575 18.7667 31.6762 18.7667 31.8C18.7667 31.9238 18.8158 32.0425 18.9033 32.13C18.9909 32.2175 19.1096 32.2667 19.2333 32.2667H21.1C21.2238 32.2667 21.3425 32.2175 21.43 32.13C21.5175 32.0425 21.5667 31.9238 21.5667 31.8C21.5667 31.6762 21.5175 31.5575 21.43 31.47C21.3425 31.3825 21.2238 31.3333 21.1 31.3333Z" fill="#655CD2"/>
<path d="M24.8333 29.4667H22.9667C22.8429 29.4667 22.7242 29.5158 22.6367 29.6034C22.5492 29.6909 22.5 29.8096 22.5 29.9333C22.5 30.0571 22.5492 30.1758 22.6367 30.2633C22.7242 30.3508 22.8429 30.4 22.9667 30.4H24.8333C24.9571 30.4 25.0758 30.3508 25.1633 30.2633C25.2508 30.1758 25.3 30.0571 25.3 29.9333C25.3 29.8096 25.2508 29.6909 25.1633 29.6034C25.0758 29.5158 24.9571 29.4667 24.8333 29.4667Z" fill="#655CD2"/>
</g>
<defs>
<clipPath id="clip0_1_1004">
<rect width="28" height="28" fill="white" transform="translate(8.5 8)"/>
</clipPath>
</defs>
</svg>
