<svg width="24" height="24" viewBox="0 0 24 24" fill="none" xmlns="http://www.w3.org/2000/svg">
<g clip-path="url(#clip0_1_6300)">
<path d="M18.2412 1.66029C17.0249 1.48582 15.7842 1.63475 14.6438 2.0921C13.6585 2.49115 12.7605 3.07845 12 3.82113C11.2395 3.07845 10.3415 2.49115 9.35625 2.0921C8.21584 1.63468 6.97505 1.48574 5.75879 1.66029C4.55155 1.83866 3.41483 2.33954 2.46854 3.11011C1.52224 3.88067 0.801462 4.89235 0.382223 6.03842C-0.663699 8.89395 0.424411 12.1358 3.6166 15.6739C6.11869 18.4472 9.38954 20.8192 11.6928 22.3208C11.7842 22.3804 11.8909 22.4121 12 22.4121C12.1091 22.4121 12.2158 22.3804 12.3072 22.3208C14.6105 20.8192 17.8813 18.4471 20.3834 15.6739C23.5756 12.1358 24.6638 8.89395 23.6178 6.03842C23.1985 4.89235 22.4777 3.88068 21.5314 3.11011C20.5851 2.33955 19.4484 1.83866 18.2412 1.66029ZM12 21.1766C7.89624 18.4604 -0.608386 12.0141 1.43855 6.42532C1.78829 5.46928 2.38957 4.62535 3.17897 3.98255C3.96837 3.33976 4.91662 2.92193 5.92369 2.77315C6.20148 2.73196 6.48193 2.71128 6.76275 2.71128C8.51968 2.71128 10.2398 3.52128 11.5829 5.00698C11.6356 5.06529 11.7 5.11189 11.7719 5.14379C11.8437 5.17569 11.9215 5.19217 12.0001 5.19217C12.0787 5.19217 12.1565 5.17569 12.2283 5.14379C12.3002 5.11189 12.3646 5.06529 12.4173 5.00698C13.9738 3.28517 16.0365 2.47104 18.0763 2.77315C19.0834 2.92194 20.0316 3.33977 20.821 3.98256C21.6104 4.62535 22.2117 5.46928 22.5615 6.42532C24.6084 12.0141 16.1038 18.4604 12 21.1766ZM21.4172 6.84448C21.7093 7.64206 21.7287 8.53146 21.4748 9.48823C21.4366 9.63244 21.3426 9.75554 21.2136 9.83046C21.0845 9.90537 20.931 9.92596 20.7868 9.8877C20.6426 9.84943 20.5195 9.75544 20.4446 9.62641C20.3697 9.49738 20.3491 9.34388 20.3873 9.19967C20.5808 8.47038 20.5719 7.80823 20.3607 7.23153C20.1558 6.67136 19.8035 6.17689 19.341 5.80025C18.8785 5.42362 18.3229 5.17879 17.7328 5.09159C17.5852 5.06972 17.4524 4.99012 17.3635 4.87031C17.2746 4.7505 17.237 4.60028 17.2588 4.45271C17.2807 4.30513 17.3603 4.17229 17.4801 4.0834C17.5999 3.99451 17.7501 3.95686 17.8977 3.97873C18.688 4.09546 19.432 4.42331 20.0515 4.92769C20.6709 5.43207 21.1428 6.09429 21.4172 6.84448Z" fill="#655CD2"/>
</g>
<defs>
<clipPath id="clip0_1_6300">
<rect width="24" height="24" fill="white"/>
</clipPath>
</defs>
</svg>
