<svg width="45" height="44" viewBox="0 0 45 44" fill="none" xmlns="http://www.w3.org/2000/svg">
<rect x="1.25" y="0.75" width="42.5" height="42.5" rx="15.25" stroke="#655CD2" stroke-width="1.5"/>
<g clip-path="url(#clip0_1_996)">
<path d="M34.26 16.0593C34.2618 16.9373 34.09 17.807 33.7544 18.6183C33.4189 19.4296 32.9261 20.1665 32.3047 20.7867C32.2611 20.83 32.2094 20.8642 32.1525 20.8874C32.0957 20.9106 32.0348 20.9224 31.9733 20.922C31.9119 20.9228 31.8508 20.9113 31.7939 20.888C31.737 20.8648 31.6853 20.8303 31.642 20.7867C31.5987 20.7435 31.5644 20.6922 31.541 20.6358C31.5176 20.5793 31.5055 20.5188 31.5055 20.4577C31.5055 20.3965 31.5176 20.336 31.541 20.2796C31.5644 20.2231 31.5987 20.1718 31.642 20.1287C32.7207 19.0491 33.3267 17.5854 33.3267 16.0593C33.3267 14.5332 32.7207 13.0695 31.642 11.99C31.5541 11.9021 31.5048 11.7829 31.5048 11.6587C31.5048 11.5344 31.5541 11.4152 31.642 11.3273C31.7299 11.2395 31.8491 11.1901 31.9733 11.1901C32.0976 11.1901 32.2168 11.2395 32.3047 11.3273C32.9266 11.9481 33.4195 12.6858 33.7551 13.498C34.0907 14.3101 34.2623 15.1806 34.26 16.0593ZM36.5 15.9753C36.5022 17.0224 36.2971 18.0596 35.8967 19.0272C35.4962 19.9947 34.9082 20.8734 34.1667 21.6127L22.1127 33.6667C20.6161 35.1608 18.5878 36 16.473 36C14.3582 36 12.3299 35.1608 10.8333 33.6667C10.0939 32.9254 9.50591 32.0473 9.102 31.0813C8.50192 29.6228 8.34611 28.0195 8.65414 26.4728C8.96216 24.926 9.72029 23.5047 10.8333 22.3873L22.8873 10.3333C24.0025 9.21738 25.4237 8.45736 26.9711 8.14948C28.5184 7.8416 30.1223 7.99969 31.5797 8.60376C33.0372 9.20782 34.2826 10.2307 35.1585 11.5429C36.0344 12.8551 36.5012 14.3977 36.5 15.9753ZM35.5667 15.9753C35.5667 14.5826 35.1537 13.2211 34.3799 12.063C33.6062 10.9049 32.5064 10.0023 31.2196 9.46936C29.9328 8.93638 28.5169 8.79694 27.1509 9.06868C25.7849 9.34042 24.5302 10.0111 23.5453 10.996L17.852 16.694L26.952 25.794C26.9953 25.8372 27.0296 25.8884 27.053 25.9449C27.0765 26.0014 27.0885 26.0619 27.0885 26.123C27.0885 26.1841 27.0765 26.2446 27.053 26.3011C27.0296 26.3576 26.9953 26.4088 26.952 26.452C26.9094 26.4963 26.8583 26.5315 26.8018 26.5556C26.7453 26.5796 26.6844 26.592 26.623 26.592C26.5616 26.592 26.5008 26.5796 26.4442 26.5556C26.3877 26.5315 26.3366 26.4963 26.294 26.452L17.194 17.352L11.496 23.0453C10.8417 23.6991 10.3225 24.4754 9.9683 25.3299C9.61406 26.1844 9.43163 27.1003 9.43144 28.0253C9.43125 28.9503 9.6133 29.8662 9.96719 30.7208C10.3211 31.5755 10.8399 32.352 11.4939 33.0061C12.148 33.6601 12.9245 34.1789 13.7792 34.5328C14.6338 34.8867 15.5497 35.0688 16.4747 35.0686C17.3997 35.0684 18.3156 34.8859 19.1701 34.5317C20.0246 34.1775 20.8009 33.6583 21.4547 33.004L33.504 20.9547C34.1599 20.3023 34.68 19.5263 35.034 18.6716C35.3881 17.8169 35.5691 16.9005 35.5667 15.9753Z" fill="#655CD2" stroke="#655CD2" stroke-width="0.3"/>
</g>
<defs>
<clipPath id="clip0_1_996">
<rect width="28" height="28" fill="white" transform="translate(8.5 8)"/>
</clipPath>
</defs>
</svg>
